Armada-Condensed.ufo
<glyph name="exclam" format="1">
  <advance width="165"/>
  <unicode hex="0021"/>
  <outline>
    <contour>
      <point x="115" y="180" type="line"/>
      <point x="49" y="180" type="line"/>
      <point x="49" y="720" type="line"/>
      <point x="115" y="720" type="line"/>
    </contour>
    <contour>
      <point x="117" y="0" type="line"/>
      <point x="47" y="0" type="line"/>
      <point x="47" y="110" type="line"/>
      <point x="117" y="110" type="line"/>
    </contour>
  </outline>
</glyph>
<glyph name="quotedbl" format="1">
  <advance width="325"/>
  <unicode hex="0022"/>
  <outline>
    <contour>
      <point x="273" y="480" type="line"/>
      <point x="204" y="480" type="line"/>
      <point x="204" y="720" type="line"/>
      <point x="273" y="720" type="line"/>
    </contour>
    <contour>
      <point x="121" y="480" type="line"/>
      <point x="52" y="480" type="line"/>
      <point x="52" y="720" type="line"/>
      <point x="121" y="720" type="line"/>
    </contour>
  </outline>
</glyph>
<glyph name="numbersign" format="1">
  <advance width="485"/>
  <unicode hex="0023"/>
  <outline>
    <contour>
      <point x="447" y="200" type="line"/>
      <point x="365" y="200" type="line"/>
      <point x="365" y="0" type="line"/>
      <point x="300" y="0" type="line"/>
      <point x="300" y="200" type="line"/>
      <point x="185" y="200" type="line"/>
      <point x="185" y="0" type="line"/>
      <point x="120" y="0" type="line"/>
      <point x="120" y="200" type="line"/>
      <point x="37" y="200" type="line"/>
      <point x="37" y="262" type="line"/>
      <point x="120" y="262" type="line"/>
      <point x="120" y="464" type="line"/>
      <point x="37" y="464" type="line"/>
      <point x="37" y="525" type="line"/>
      <point x="120" y="525" type="line"/>
      <point x="120" y="720" type="line"/>
      <point x="185" y="720" type="line"/>
      <point x="185" y="525" type="line"/>
      <point x="300" y="525" type="line"/>
      <point x="300" y="720" type="line"/>
      <point x="365" y="720" type="line"/>
      <point x="365" y="525" type="line"/>
      <point x="447" y="525" type="line"/>
      <point x="447" y="464" type="line"/>
      <point x="365" y="464" type="line"/>
      <point x="365" y="262" type="line"/>
      <point x="447" y="262" type="line"/>
    </contour>
    <contour>
      <point x="300" y="262" type="line"/>
      <point x="300" y="464" type="line"/>
      <point x="185" y="464" type="line"/>
      <point x="185" y="262" type="line"/>
    </contour>
  </outline>
</glyph>
<glyph name="dollar" format="1">
  <advance width="417"/>
  <unicode hex="0024"/>
  <outline>
    <contour>
      <point x="375" y="43" type="line"/>
      <point x="336" y="14"/>
      <point x="291" y="0"/>
      <point x="245" y="-4" type="curve"/>
      <point x="245" y="-100" type="line"/>
      <point x="180" y="-100" type="line"/>
      <point x="180" y="-4" type="line"/>
      <point x="134" y="0"/>
      <point x="89" y="14"/>
      <point x="50" y="43" type="curve"/>
      <point x="50" y="244" type="line"/>
      <point x="117" y="244" type="line"/>
      <point x="117" y="79" type="line"/>
      <point x="145" y="62"/>
      <point x="173" y="55"/>
      <point x="212" y="55" type="curve" smooth="yes"/>
      <point x="251" y="55"/>
      <point x="280" y="62"/>
      <point x="307" y="79" type="curve"/>
      <point x="307" y="266" type="line"/>
      <point x="51" y="428" type="line"/>
      <point x="51" y="677" type="line"/>
      <point x="90" y="706"/>
      <point x="134" y="720"/>
      <point x="180" y="724" type="curve"/>
      <point x="180" y="807" type="line"/>
      <point x="245" y="807" type="line"/>
      <point x="245" y="724" type="line"/>
      <point x="290" y="720"/>
      <point x="334" y="706"/>
      <point x="374" y="677" type="curve"/>
      <point x="374" y="476" type="line"/>
      <point x="306" y="476" type="line"/>
      <point x="306" y="641" type="line"/>
      <point x="278" y="658"/>
      <point x="251" y="665"/>
      <point x="212" y="665" type="curve" smooth="yes"/>
      <point x="173" y="665"/>
      <point x="146" y="658"/>
      <point x="119" y="641" type="curve"/>
      <point x="119" y="461" type="line"/>
      <point x="375" y="299" type="line"/>
    </contour>
  </outline>
</glyph>
<glyph name="percent" format="1">
  <advance width="749"/>
  <unicode hex="0025"/>
  <outline>
    <contour>
      <point x="701" y="41" type="line"/>
      <point x="671" y="11"/>
      <point x="625" y="-7"/>
      <point x="575" y="-7" type="curve" smooth="yes"/>
      <point x="524" y="-7"/>
      <point x="478" y="11"/>
      <point x="449" y="41" type="curve"/>
      <point x="449" y="351" type="line"/>
      <point x="478" y="381"/>
      <point x="524" y="399"/>
      <point x="575" y="399" type="curve" smooth="yes"/>
      <point x="625" y="399"/>
      <point x="671" y="381"/>
      <point x="701" y="351" type="curve"/>
    </contour>
    <contour>
      <point x="521" y="720" type="line"/>
      <point x="291" y="0" type="line"/>
      <point x="228" y="0" type="line"/>
      <point x="458" y="720" type="line"/>
    </contour>
    <contour>
      <point x="301" y="369" type="line"/>
      <point x="271" y="339"/>
      <point x="225" y="321"/>
      <point x="175" y="321" type="curve" smooth="yes"/>
      <point x="124" y="321"/>
      <point x="78" y="339"/>
      <point x="49" y="369" type="curve"/>
      <point x="49" y="679" type="line"/>
      <point x="78" y="709"/>
      <point x="124" y="727"/>
      <point x="175" y="727" type="curve" smooth="yes"/>
      <point x="225" y="727"/>
      <point x="271" y="709"/>
      <point x="301" y="679" type="curve"/>
    </contour>
    <contour>
      <point x="640" y="68" type="curve"/>
      <point x="640" y="324" type="line"/>
      <point x="622" y="339"/>
      <point x="601" y="346"/>
      <point x="575" y="346" type="curve" smooth="yes"/>
      <point x="548" y="346"/>
      <point x="527" y="339"/>
      <point x="509" y="324" type="curve"/>
      <point x="509" y="68" type="line"/>
      <point x="527" y="53"/>
      <point x="548" y="46"/>
      <point x="575" y="46" type="curve" smooth="yes"/>
      <point x="601" y="46"/>
      <point x="622" y="53"/>
    </contour>
    <contour>
      <point x="240" y="396" type="curve"/>
      <point x="240" y="652" type="line"/>
      <point x="222" y="667"/>
      <point x="201" y="674"/>
      <point x="175" y="674" type="curve" smooth="yes"/>
      <point x="148" y="674"/>
      <point x="127" y="667"/>
      <point x="109" y="652" type="curve"/>
      <point x="109" y="396" type="line"/>
      <point x="127" y="381"/>
      <point x="148" y="374"/>
      <point x="175" y="374" type="curve" smooth="yes"/>
      <point x="201" y="374"/>
      <point x="222" y="381"/>
    </contour>
  </outline>
</glyph>
<glyph name="ampersand" format="1">
  <advance width="470"/>
  <unicode hex="0026"/>
  <outline>
    <contour>
      <point x="443" y="340" type="line"/>
      <point x="394" y="340" type="line"/>
      <point x="394" y="41" type="line"/>
      <point x="347" y="5"/>
      <point x="293" y="-7"/>
      <point x="220" y="-7" type="curve" smooth="yes"/>
      <point x="153" y="-7"/>
      <point x="86" y="12"/>
      <point x="47" y="56" type="curve"/>
      <point x="47" y="317" type="line"/>
      <point x="67" y="341"/>
      <point x="103" y="363"/>
      <point x="137" y="368" type="curve"/>
      <point x="102" y="377"/>
      <point x="73" y="395"/>
      <point x="52" y="418" type="curve"/>
      <point x="52" y="664" type="line"/>
      <point x="91" y="708"/>
      <point x="156" y="727"/>
      <point x="222" y="727" type="curve" smooth="yes"/>
      <point x="296" y="727"/>
      <point x="348" y="715"/>
      <point x="395" y="679" type="curve"/>
      <point x="395" y="476" type="line"/>
      <point x="327" y="476" type="line"/>
      <point x="327" y="645" type="line"/>
      <point x="299" y="662"/>
      <point x="268" y="667"/>
      <point x="222" y="667" type="curve" smooth="yes"/>
      <point x="187" y="667"/>
      <point x="142" y="658"/>
      <point x="120" y="635" type="curve"/>
      <point x="120" y="438" type="line"/>
      <point x="145" y="410"/>
      <point x="178" y="397"/>
      <point x="236" y="397" type="curve" smooth="yes"/>
      <point x="443" y="397" type="line"/>
    </contour>
    <contour>
      <point x="327" y="75" type="curve"/>
      <point x="327" y="340" type="line"/>
      <point x="236" y="340" type="line" smooth="yes"/>
      <point x="176" y="340"/>
      <point x="143" y="329"/>
      <point x="115" y="299" type="curve"/>
      <point x="115" y="85" type="line"/>
      <point x="137" y="62"/>
      <point x="184" y="53"/>
      <point x="220" y="53" type="curve" smooth="yes"/>
      <point x="265" y="53"/>
      <point x="299" y="58"/>
    </contour>
  </outline>
</glyph>
<glyph name="quotesingle" format="1">
  <advance width="172"/>
  <unicode hex="0027"/>
  <outline>
    <contour>
      <point x="121" y="480" type="line"/>
      <point x="52" y="480" type="line"/>
      <point x="52" y="720" type="line"/>
      <point x="121" y="720" type="line"/>
    </contour>
  </outline>
</glyph>
<glyph name="parenleft" format="1">
  <advance width="252"/>
  <unicode hex="0028"/>
  <outline>
    <contour>
      <point x="210" y="-6" type="line"/>
      <point x="144" y="-6"/>
      <point x="87" y="24"/>
      <point x="55" y="63" type="curve"/>
      <point x="55" y="657" type="line"/>
      <point x="87" y="696"/>
      <point x="144" y="726"/>
      <point x="210" y="726" type="curve"/>
      <point x="210" y="661" type="line"/>
      <point x="178" y="660"/>
      <point x="142" y="645"/>
      <point x="122" y="625" type="curve"/>
      <point x="122" y="95" type="line"/>
      <point x="142" y="75"/>
      <point x="178" y="60"/>
      <point x="210" y="59" type="curve"/>
    </contour>
  </outline>
</glyph>
<glyph name="parenright" format="1">
  <advance width="252"/>
  <unicode hex="0029"/>
  <outline>
    <contour>
      <point x="197" y="63" type="line"/>
      <point x="165" y="24"/>
      <point x="108" y="-6"/>
      <point x="42" y="-6" type="curve"/>
      <point x="42" y="59" type="line"/>
      <point x="75" y="60"/>
      <point x="110" y="75"/>
      <point x="130" y="95" type="curve"/>
      <point x="130" y="625" type="line"/>
      <point x="110" y="645"/>
      <point x="75" y="660"/>
      <point x="42" y="661" type="curve"/>
      <point x="42" y="726" type="line"/>
      <point x="108" y="726"/>
      <point x="165" y="696"/>
      <point x="197" y="657" type="curve"/>
    </contour>
  </outline>
</glyph>
<glyph name="asterisk" format="1">
  <advance width="407"/>
  <unicode hex="002A"/>
  <outline>
    <contour>
      <point x="355" y="295" type="line"/>
      <point x="294" y="295" type="line"/>
      <point x="294" y="407" type="line"/>
      <point x="281" y="424"/>
      <point x="262" y="436"/>
      <point x="232" y="441" type="curve"/>
      <point x="232" y="220" type="line"/>
      <point x="175" y="220" type="line"/>
      <point x="175" y="441" type="line"/>
      <point x="145" y="436"/>
      <point x="126" y="424"/>
      <point x="113" y="407" type="curve"/>
      <point x="113" y="295" type="line"/>
      <point x="52" y="295" type="line"/>
      <point x="52" y="421" type="line"/>
      <point x="71" y="444"/>
      <point x="100" y="462"/>
      <point x="128" y="470" type="curve"/>
      <point x="100" y="479"/>
      <point x="71" y="497"/>
      <point x="52" y="520" type="curve"/>
      <point x="52" y="645" type="line"/>
      <point x="113" y="645" type="line"/>
      <point x="113" y="534" type="line"/>
      <point x="126" y="517"/>
      <point x="145" y="504"/>
      <point x="175" y="500" type="curve"/>
      <point x="175" y="720" type="line"/>
      <point x="232" y="720" type="line"/>
      <point x="232" y="500" type="line"/>
      <point x="262" y="504"/>
      <point x="281" y="517"/>
      <point x="294" y="534" type="curve"/>
      <point x="294" y="645" type="line"/>
      <point x="355" y="645" type="line"/>
      <point x="355" y="520" type="line"/>
      <point x="337" y="497"/>
      <point x="308" y="479"/>
      <point x="279" y="470" type="curve"/>
      <point x="308" y="462"/>
      <point x="337" y="444"/>
      <point x="355" y="421" type="curve"/>
    </contour>
  </outline>
</glyph>
<glyph name="plus" format="1">
  <advance width="335"/>
  <unicode hex="002B"/>
  <outline>
    <contour>
      <point x="307" y="340" type="line"/>
      <point x="200" y="340" type="line"/>
      <point x="200" y="190" type="line"/>
      <point x="135" y="190" type="line"/>
      <point x="135" y="340" type="line"/>
      <point x="27" y="340" type="line"/>
      <point x="27" y="402" type="line"/>
      <point x="135" y="402" type="line"/>
      <point x="135" y="552" type="line"/>
      <point x="200" y="552" type="line"/>
      <point x="200" y="402" type="line"/>
      <point x="307" y="402" type="line"/>
    </contour>
  </outline>
</glyph>
<glyph name="comma" format="1">
  <advance width="165"/>
  <unicode hex="002C"/>
  <outline>
    <contour>
      <point x="122" y="110" type="line"/>
      <point x="95" y="-82" type="line"/>
      <point x="29" y="-82" type="line"/>
      <point x="56" y="110" type="line"/>
    </contour>
  </outline>
</glyph>
<glyph name="hyphen" format="1">
  <advance width="237"/>
  <unicode hex="002D"/>
  <unicode hex="2010"/>
  <unicode hex="2011"/>
  <outline>
    <contour>
      <point x="210" y="275" type="line"/>
      <point x="27" y="275" type="line"/>
      <point x="27" y="339" type="line"/>
      <point x="210" y="339" type="line"/>
    </contour>
  </outline>
</glyph>
<glyph name="period" format="1">
  <advance width="165"/>
  <unicode hex="002E"/>
  <outline>
    <contour>
      <point x="118" y="0" type="line"/>
      <point x="47" y="0" type="line"/>
      <point x="47" y="110" type="line"/>
      <point x="118" y="110" type="line"/>
    </contour>
  </outline>
</glyph>
<glyph name="slash" format="1">
  <advance width="300"/>
  <unicode hex="002F"/>
  <outline>
    <contour>
      <point x="269" y="720" type="line"/>
      <point x="98" y="0" type="line"/>
      <point x="31" y="0" type="line"/>
      <point x="202" y="720" type="line"/>
    </contour>
  </outline>
</glyph>
<glyph name="zero" format="1">
  <advance width="460"/>
  <unicode hex="0030"/>
  <outline>
    <contour>
      <point x="405" y="58" type="line"/>
      <point x="359" y="14"/>
      <point x="293" y="-7"/>
      <point x="230" y="-7" type="curve" smooth="yes"/>
      <point x="167" y="-7"/>
      <point x="101" y="14"/>
      <point x="55" y="58" type="curve"/>
      <point x="55" y="663" type="line"/>
      <point x="101" y="705"/>
      <point x="167" y="727"/>
      <point x="230" y="727" type="curve" smooth="yes"/>
      <point x="293" y="727"/>
      <point x="359" y="705"/>
      <point x="405" y="663" type="curve"/>
    </contour>
    <contour>
      <point x="337" y="90" type="curve"/>
      <point x="337" y="630" type="line"/>
      <point x="312" y="653"/>
      <point x="277" y="666"/>
      <point x="230" y="666" type="curve" smooth="yes"/>
      <point x="183" y="666"/>
      <point x="148" y="653"/>
      <point x="122" y="630" type="curve"/>
      <point x="122" y="90" type="line"/>
      <point x="148" y="67"/>
      <point x="183" y="54"/>
      <point x="230" y="54" type="curve" smooth="yes"/>
      <point x="277" y="54"/>
      <point x="312" y="67"/>
    </contour>
  </outline>
</glyph>
<glyph name="one" format="1">
  <advance width="309"/>
  <unicode hex="0031"/>
  <outline>
    <contour>
      <point x="281" y="0" type="line"/>
      <point x="34" y="0" type="line"/>
      <point x="34" y="63" type="line"/>
      <point x="124" y="63" type="line"/>
      <point x="124" y="657" type="line"/>
      <point x="39" y="657" type="line"/>
      <point x="39" y="720" type="line"/>
      <point x="191" y="720" type="line"/>
      <point x="191" y="63" type="line"/>
      <point x="281" y="63" type="line"/>
    </contour>
  </outline>
</glyph>
<glyph name="two" format="1">
  <advance width="412"/>
  <unicode hex="0032"/>
  <outline>
    <contour>
      <point x="367" y="0" type="line"/>
      <point x="43" y="0" type="line"/>
      <point x="43" y="53" type="line"/>
      <point x="297" y="470" type="line"/>
      <point x="297" y="638" type="line"/>
      <point x="270" y="657"/>
      <point x="240" y="666"/>
      <point x="204" y="666" type="curve" smooth="yes"/>
      <point x="168" y="666"/>
      <point x="137" y="657"/>
      <point x="112" y="638" type="curve"/>
      <point x="112" y="476" type="line"/>
      <point x="44" y="476" type="line"/>
      <point x="44" y="673" type="line"/>
      <point x="93" y="713"/>
      <point x="150" y="727"/>
      <point x="204" y="727" type="curve" smooth="yes"/>
      <point x="260" y="727"/>
      <point x="316" y="712"/>
      <point x="364" y="673" type="curve"/>
      <point x="364" y="459" type="line"/>
      <point x="118" y="62" type="line"/>
      <point x="118" y="62" type="line"/>
      <point x="367" y="62" type="line"/>
    </contour>
  </outline>
</glyph>
<glyph name="three" format="1">
  <advance width="445"/>
  <unicode hex="0033"/>
  <outline>
    <contour>
      <point x="390" y="47" type="line"/>
      <point x="342" y="8"/>
      <point x="282" y="-7"/>
      <point x="221" y="-7" type="curve" smooth="yes"/>
      <point x="163" y="-7"/>
      <point x="101" y="7"/>
      <point x="52" y="47" type="curve"/>
      <point x="52" y="244" type="line"/>
      <point x="120" y="244" type="line"/>
      <point x="120" y="82" type="line"/>
      <point x="145" y="63"/>
      <point x="181" y="54"/>
      <point x="221" y="54" type="curve" smooth="yes"/>
      <point x="260" y="54"/>
      <point x="296" y="63"/>
      <point x="323" y="82" type="curve"/>
      <point x="323" y="295" type="line"/>
      <point x="295" y="325"/>
      <point x="264" y="335"/>
      <point x="204" y="335" type="curve" smooth="yes"/>
      <point x="155" y="335" type="line"/>
      <point x="155" y="396" type="line"/>
      <point x="204" y="396" type="line" smooth="yes"/>
      <point x="262" y="396"/>
      <point x="295" y="408"/>
      <point x="320" y="436" type="curve"/>
      <point x="320" y="638" type="line"/>
      <point x="293" y="657"/>
      <point x="259" y="666"/>
      <point x="220" y="666" type="curve" smooth="yes"/>
      <point x="180" y="666"/>
      <point x="146" y="657"/>
      <point x="120" y="638" type="curve"/>
      <point x="120" y="476" type="line"/>
      <point x="53" y="476" type="line"/>
      <point x="53" y="673" type="line"/>
      <point x="102" y="713"/>
      <point x="162" y="727"/>
      <point x="220" y="727" type="curve" smooth="yes"/>
      <point x="281" y="727"/>
      <point x="340" y="712"/>
      <point x="388" y="673" type="curve"/>
      <point x="388" y="415" type="line"/>
      <point x="367" y="392"/>
      <point x="338" y="374"/>
      <point x="303" y="365" type="curve"/>
      <point x="337" y="358"/>
      <point x="372" y="336"/>
      <point x="390" y="314" type="curve"/>
    </contour>
  </outline>
</glyph>
<glyph name="four" format="1">
  <advance width="447"/>
  <unicode hex="0034"/>
  <outline>
    <contour>
      <point x="385" y="0" type="line"/>
      <point x="317" y="0" type="line"/>
      <point x="317" y="232" type="line"/>
      <point x="57" y="232" type="line"/>
      <point x="57" y="720" type="line"/>
      <point x="125" y="720" type="line"/>
      <point x="125" y="296" type="line"/>
      <point x="317" y="296" type="line"/>
      <point x="317" y="720" type="line"/>
      <point x="385" y="720" type="line"/>
    </contour>
  </outline>
</glyph>
<glyph name="five" format="1">
  <advance width="434"/>
  <unicode hex="0035"/>
  <outline>
    <contour>
      <point x="382" y="655" type="line"/>
      <point x="126" y="655" type="line"/>
      <point x="126" y="429" type="line"/>
      <point x="223" y="429" type="line" smooth="yes"/>
      <point x="290" y="429"/>
      <point x="341" y="414"/>
      <point x="379" y="376" type="curve"/>
      <point x="379" y="42" type="line"/>
      <point x="331" y="7"/>
      <point x="278" y="-7"/>
      <point x="218" y="-7" type="curve" smooth="yes"/>
      <point x="159" y="-7"/>
      <point x="105" y="6"/>
      <point x="56" y="42" type="curve"/>
      <point x="56" y="244" type="line"/>
      <point x="124" y="244" type="line"/>
      <point x="124" y="78" type="line"/>
      <point x="149" y="60"/>
      <point x="178" y="54"/>
      <point x="218" y="54" type="curve" smooth="yes"/>
      <point x="256" y="54"/>
      <point x="285" y="60"/>
      <point x="312" y="78" type="curve"/>
      <point x="312" y="342" type="line"/>
      <point x="291" y="361"/>
      <point x="263" y="368"/>
      <point x="218" y="368" type="curve" smooth="yes"/>
      <point x="60" y="368" type="line"/>
      <point x="60" y="720" type="line"/>
      <point x="382" y="720" type="line"/>
    </contour>
  </outline>
</glyph>
<glyph name="six" format="1">
  <advance width="450"/>
  <unicode hex="0036"/>
  <outline>
    <contour>
      <point x="395" y="56" type="line"/>
      <point x="350" y="9"/>
      <point x="281" y="-7"/>
      <point x="225" y="-7" type="curve" smooth="yes"/>
      <point x="169" y="-7"/>
      <point x="101" y="9"/>
      <point x="55" y="56" type="curve"/>
      <point x="55" y="673" type="line"/>
      <point x="103" y="712"/>
      <point x="164" y="727"/>
      <point x="225" y="727" type="curve" smooth="yes"/>
      <point x="283" y="727"/>
      <point x="344" y="714"/>
      <point x="393" y="678" type="curve"/>
      <point x="393" y="476" type="line"/>
      <point x="326" y="476" type="line"/>
      <point x="326" y="641" type="line"/>
      <point x="301" y="658"/>
      <point x="267" y="666"/>
      <point x="225" y="666" type="curve" smooth="yes"/>
      <point x="186" y="666"/>
      <point x="149" y="657"/>
      <point x="122" y="638" type="curve"/>
      <point x="122" y="390" type="line"/>
      <point x="151" y="405"/>
      <point x="195" y="417"/>
      <point x="234" y="417" type="curve" smooth="yes"/>
      <point x="303" y="417"/>
      <point x="356" y="399"/>
      <point x="395" y="363" type="curve"/>
    </contour>
    <contour>
      <point x="327" y="85" type="curve"/>
      <point x="327" y="328" type="line"/>
      <point x="308" y="345"/>
      <point x="277" y="356"/>
      <point x="225" y="356" type="curve" smooth="yes"/>
      <point x="190" y="356"/>
      <point x="151" y="346"/>
      <point x="122" y="327" type="curve"/>
      <point x="122" y="85" type="line"/>
      <point x="147" y="64"/>
      <point x="188" y="55"/>
      <point x="225" y="54" type="curve" smooth="yes"/>
      <point x="262" y="53"/>
      <point x="303" y="64"/>
    </contour>
  </outline>
</glyph>
<glyph name="seven" format="1">
  <advance width="385"/>
  <unicode hex="0037"/>
  <outline>
    <contour>
      <point x="347" y="662" type="line"/>
      <point x="171" y="0" type="line"/>
      <point x="103" y="0" type="line"/>
      <point x="282" y="660" type="line"/>
      <point x="34" y="660" type="line"/>
      <point x="34" y="720" type="line"/>
      <point x="347" y="720" type="line"/>
    </contour>
  </outline>
</glyph>
<glyph name="eight" format="1">
  <advance width="451"/>
  <unicode hex="0038"/>
  <outline>
    <contour>
      <point x="396" y="56" type="line"/>
      <point x="354" y="13"/>
      <point x="289" y="-7"/>
      <point x="225" y="-7" type="curve" smooth="yes"/>
      <point x="162" y="-7"/>
      <point x="96" y="13"/>
      <point x="55" y="56" type="curve"/>
      <point x="55" y="315" type="line"/>
      <point x="73" y="338"/>
      <point x="113" y="361"/>
      <point x="145" y="365" type="curve"/>
      <point x="113" y="374"/>
      <point x="80" y="393"/>
      <point x="62" y="416" type="curve"/>
      <point x="62" y="665" type="line"/>
      <point x="107" y="711"/>
      <point x="169" y="727"/>
      <point x="225" y="727" type="curve" smooth="yes"/>
      <point x="282" y="727"/>
      <point x="344" y="711"/>
      <point x="388" y="665" type="curve"/>
      <point x="388" y="416" type="line"/>
      <point x="371" y="393"/>
      <point x="338" y="374"/>
      <point x="306" y="365" type="curve"/>
      <point x="338" y="361"/>
      <point x="377" y="338"/>
      <point x="396" y="315" type="curve"/>
    </contour>
    <contour>
      <point x="321" y="430" type="curve"/>
      <point x="321" y="637" type="line"/>
      <point x="296" y="658"/>
      <point x="260" y="667"/>
      <point x="225" y="667" type="curve" smooth="yes"/>
      <point x="191" y="667"/>
      <point x="154" y="658"/>
      <point x="130" y="637" type="curve"/>
      <point x="130" y="430" type="line"/>
      <point x="152" y="407"/>
      <point x="190" y="396"/>
      <point x="225" y="396" type="curve" smooth="yes"/>
      <point x="261" y="396"/>
      <point x="298" y="407"/>
    </contour>
    <contour>
      <point x="329" y="85" type="curve"/>
      <point x="329" y="302" type="line"/>
      <point x="304" y="325"/>
      <point x="263" y="336"/>
      <point x="225" y="336" type="curve" smooth="yes"/>
      <point x="188" y="336"/>
      <point x="147" y="325"/>
      <point x="123" y="302" type="curve"/>
      <point x="123" y="85" type="line"/>
      <point x="148" y="63"/>
      <point x="190" y="53"/>
      <point x="225" y="53" type="curve" smooth="yes"/>
      <point x="261" y="53"/>
      <point x="304" y="63"/>
    </contour>
  </outline>
</glyph>
<glyph name="nine" format="1">
  <advance width="450"/>
  <unicode hex="0039"/>
  <outline>
    <contour>
      <point x="395" y="47" type="line"/>
      <point x="347" y="8"/>
      <point x="285" y="-7"/>
      <point x="225" y="-7" type="curve" smooth="yes"/>
      <point x="166" y="-7"/>
      <point x="105" y="6"/>
      <point x="56" y="42" type="curve"/>
      <point x="56" y="244" type="line"/>
      <point x="124" y="244" type="line"/>
      <point x="124" y="79" type="line"/>
      <point x="148" y="62"/>
      <point x="183" y="54"/>
      <point x="225" y="54" type="curve" smooth="yes"/>
      <point x="263" y="54"/>
      <point x="300" y="63"/>
      <point x="327" y="82" type="curve"/>
      <point x="327" y="330" type="line"/>
      <point x="299" y="315"/>
      <point x="255" y="303"/>
      <point x="216" y="303" type="curve" smooth="yes"/>
      <point x="147" y="303"/>
      <point x="93" y="321"/>
      <point x="55" y="357" type="curve"/>
      <point x="55" y="664" type="line"/>
      <point x="100" y="711"/>
      <point x="168" y="727"/>
      <point x="225" y="727" type="curve" smooth="yes"/>
      <point x="280" y="727"/>
      <point x="349" y="711"/>
      <point x="395" y="664" type="curve"/>
    </contour>
    <contour>
      <point x="327" y="393" type="curve"/>
      <point x="327" y="635" type="line"/>
      <point x="303" y="656"/>
      <point x="262" y="665"/>
      <point x="225" y="666" type="curve" smooth="yes"/>
      <point x="188" y="666"/>
      <point x="147" y="656"/>
      <point x="122" y="635" type="curve"/>
      <point x="122" y="392" type="line"/>
      <point x="141" y="375"/>
      <point x="173" y="364"/>
      <point x="225" y="364" type="curve" smooth="yes"/>
      <point x="260" y="364"/>
      <point x="299" y="374"/>
    </contour>
  </outline>
</glyph>
<glyph name="colon" format="1">
  <advance width="165"/>
  <unicode hex="003A"/>
  <outline>
    <contour>
      <point x="118" y="370" type="line"/>
      <point x="47" y="370" type="line"/>
      <point x="47" y="480" type="line"/>
      <point x="118" y="480" type="line"/>
    </contour>
    <contour>
      <point x="118" y="0" type="line"/>
      <point x="47" y="0" type="line"/>
      <point x="47" y="110" type="line"/>
      <point x="118" y="110" type="line"/>
    </contour>
  </outline>
</glyph>
<glyph name="semicolon" format="1">
  <advance width="165"/>
  <unicode hex="003B"/>
  <outline>
    <contour>
      <point x="118" y="370" type="line"/>
      <point x="47" y="370" type="line"/>
      <point x="47" y="480" type="line"/>
      <point x="118" y="480" type="line"/>
    </contour>
    <contour>
      <point x="122" y="110" type="line"/>
      <point x="95" y="-82" type="line"/>
      <point x="29" y="-82" type="line"/>
      <point x="56" y="110" type="line"/>
    </contour>
  </outline>
</glyph>
<glyph name="less" format="1">
  <advance width="309"/>
  <unicode hex="003C"/>
  <outline>
    <contour>
      <point x="264" y="128" type="line"/>
      <point x="34" y="323" type="line"/>
      <point x="34" y="398" type="line"/>
      <point x="264" y="592" type="line"/>
      <point x="264" y="503" type="line"/>
      <point x="89" y="360" type="line"/>
      <point x="264" y="218" type="line"/>
    </contour>
  </outline>
</glyph>
<glyph name="equal" format="1">
  <advance width="290"/>
  <unicode hex="003D"/>
  <outline>
    <contour>
      <point x="252" y="413" type="line"/>
      <point x="37" y="413" type="line"/>
      <point x="37" y="477" type="line"/>
      <point x="252" y="477" type="line"/>
    </contour>
    <contour>
      <point x="252" y="265" type="line"/>
      <point x="37" y="265" type="line"/>
      <point x="37" y="329" type="line"/>
      <point x="252" y="329" type="line"/>
    </contour>
  </outline>
</glyph>
<glyph name="greater" format="1">
  <advance width="309"/>
  <unicode hex="003E"/>
  <outline>
    <contour>
      <point x="275" y="323" type="line"/>
      <point x="44" y="128" type="line"/>
      <point x="44" y="218" type="line"/>
      <point x="220" y="360" type="line"/>
      <point x="44" y="503" type="line"/>
      <point x="44" y="592" type="line"/>
      <point x="275" y="398" type="line"/>
    </contour>
  </outline>
</glyph>
<glyph name="question" format="1">
  <advance width="389"/>
  <unicode hex="003F"/>
  <outline>
    <contour>
      <point x="354" y="455" type="line"/>
      <point x="229" y="297" type="line"/>
      <point x="229" y="175" type="line"/>
      <point x="161" y="175" type="line"/>
      <point x="161" y="307" type="line"/>
      <point x="286" y="464" type="line"/>
      <point x="286" y="639" type="line"/>
      <point x="259" y="658"/>
      <point x="229" y="667"/>
      <point x="194" y="667" type="curve" smooth="yes"/>
      <point x="157" y="667"/>
      <point x="127" y="658"/>
      <point x="101" y="639" type="curve"/>
      <point x="101" y="476" type="line"/>
      <point x="34" y="476" type="line"/>
      <point x="34" y="673" type="line"/>
      <point x="83" y="713"/>
      <point x="140" y="727"/>
      <point x="194" y="727" type="curve" smooth="yes"/>
      <point x="250" y="727"/>
      <point x="306" y="712"/>
      <point x="354" y="673" type="curve"/>
    </contour>
    <contour>
      <point x="230" y="0" type="line"/>
      <point x="160" y="0" type="line"/>
      <point x="160" y="110" type="line"/>
      <point x="230" y="110" type="line"/>
    </contour>
  </outline>
</glyph>
<glyph name="at" format="1">
  <advance width="585"/>
  <unicode hex="0040"/>
  <outline>
    <contour>
      <point x="530" y="71" type="line"/>
      <point x="466" y="17"/>
      <point x="383" y="-7"/>
      <point x="292" y="-7" type="curve" smooth="yes"/>
      <point x="200" y="-7"/>
      <point x="118" y="17"/>
      <point x="55" y="71" type="curve"/>
      <point x="55" y="649" type="line"/>
      <point x="118" y="703"/>
      <point x="200" y="727"/>
      <point x="292" y="727" type="curve" smooth="yes"/>
      <point x="383" y="727"/>
      <point x="466" y="703"/>
      <point x="530" y="649" type="curve"/>
      <point x="530" y="331" type="line"/>
      <point x="400" y="331" type="line"/>
      <point x="400" y="157" type="line"/>
      <point x="376" y="139"/>
      <point x="339" y="125"/>
      <point x="292" y="125" type="curve" smooth="yes"/>
      <point x="247" y="125"/>
      <point x="209" y="138"/>
      <point x="185" y="157" type="curve"/>
      <point x="185" y="563" type="line"/>
      <point x="208" y="582"/>
      <point x="246" y="595"/>
      <point x="292" y="595" type="curve" smooth="yes"/>
      <point x="338" y="595"/>
      <point x="376" y="583"/>
      <point x="400" y="563" type="curve"/>
      <point x="400" y="388" type="line"/>
      <point x="465" y="388" type="line"/>
      <point x="465" y="617" type="line"/>
      <point x="420" y="649"/>
      <point x="360" y="666"/>
      <point x="292" y="666" type="curve" smooth="yes"/>
      <point x="226" y="666"/>
      <point x="166" y="650"/>
      <point x="120" y="617" type="curve"/>
      <point x="120" y="103" type="line"/>
      <point x="166" y="70"/>
      <point x="226" y="54"/>
      <point x="292" y="54" type="curve" smooth="yes"/>
      <point x="360" y="54"/>
      <point x="420" y="71"/>
      <point x="465" y="103" type="curve"/>
      <point x="465" y="249" type="line"/>
      <point x="530" y="249" type="line"/>
    </contour>
    <contour>
      <point x="341" y="190" type="curve"/>
      <point x="341" y="530" type="line"/>
      <point x="330" y="538"/>
      <point x="314" y="542"/>
      <point x="292" y="542" type="curve" smooth="yes"/>
      <point x="272" y="542"/>
      <point x="255" y="538"/>
      <point x="245" y="530" type="curve"/>
      <point x="245" y="190" type="line"/>
      <point x="255" y="182"/>
      <point x="272" y="179"/>
      <point x="292" y="179" type="curve" smooth="yes"/>
      <point x="313" y="179"/>
      <point x="328" y="182"/>
    </contour>
  </outline>
</glyph>
<glyph name="A" format="1">
  <advance width="450"/>
  <unicode hex="0041"/>
  <outline>
    <contour>
      <point x="392" y="0" type="line"/>
      <point x="325" y="0" type="line"/>
      <point x="325" y="309" type="line"/>
      <point x="125" y="309" type="line"/>
      <point x="125" y="0" type="line"/>
      <point x="57" y="0" type="line"/>
      <point x="57" y="663" type="line"/>
      <point x="99" y="705"/>
      <point x="162" y="727"/>
      <point x="225" y="727" type="curve" smooth="yes"/>
      <point x="288" y="727"/>
      <point x="351" y="705"/>
      <point x="392" y="663" type="curve"/>
    </contour>
    <contour>
      <point x="325" y="373" type="line"/>
      <point x="325" y="631" type="line"/>
      <point x="298" y="654"/>
      <point x="263" y="666"/>
      <point x="225" y="666" type="curve" smooth="yes"/>
      <point x="187" y="666"/>
      <point x="152" y="654"/>
      <point x="125" y="631" type="curve"/>
      <point x="125" y="373" type="line"/>
    </contour>
  </outline>
</glyph>
<glyph name="B" format="1">
  <advance width="441"/>
  <unicode hex="0042"/>
  <outline>
    <contour>
      <point x="394" y="70" type="line"/>
      <point x="355" y="22"/>
      <point x="297" y="0"/>
      <point x="208" y="0" type="curve" smooth="yes"/>
      <point x="62" y="0" type="line"/>
      <point x="62" y="720" type="line"/>
      <point x="202" y="720" type="line" smooth="yes"/>
      <point x="291" y="720"/>
      <point x="350" y="699"/>
      <point x="388" y="651" type="curve"/>
      <point x="388" y="422" type="line"/>
      <point x="367" y="398"/>
      <point x="339" y="381"/>
      <point x="304" y="372" type="curve"/>
      <point x="338" y="367"/>
      <point x="374" y="344"/>
      <point x="394" y="321" type="curve"/>
    </contour>
    <contour>
      <point x="321" y="441" type="curve"/>
      <point x="321" y="624" type="line"/>
      <point x="298" y="649"/>
      <point x="262" y="659"/>
      <point x="202" y="659" type="curve" smooth="yes"/>
      <point x="129" y="659" type="line"/>
      <point x="129" y="400" type="line"/>
      <point x="205" y="400" type="line" smooth="yes"/>
      <point x="264" y="400"/>
      <point x="297" y="414"/>
    </contour>
    <contour>
      <point x="326" y="96" type="curve"/>
      <point x="326" y="302" type="line"/>
      <point x="300" y="331"/>
      <point x="266" y="343"/>
      <point x="205" y="343" type="curve" smooth="yes"/>
      <point x="129" y="343" type="line"/>
      <point x="129" y="61" type="line"/>
      <point x="207" y="61" type="line" smooth="yes"/>
      <point x="267" y="61"/>
      <point x="304" y="70"/>
    </contour>
  </outline>
</glyph>
<glyph name="C" format="1">
  <advance width="465"/>
  <unicode hex="0043"/>
  <outline>
    <contour>
      <point x="410" y="52" type="line"/>
      <point x="358" y="10"/>
      <point x="293" y="-7"/>
      <point x="232" y="-7" type="curve" smooth="yes"/>
      <point x="173" y="-7"/>
      <point x="109" y="9"/>
      <point x="55" y="52" type="curve"/>
      <point x="55" y="668" type="line"/>
      <point x="107" y="710"/>
      <point x="171" y="727"/>
      <point x="232" y="727" type="curve" smooth="yes"/>
      <point x="291" y="727"/>
      <point x="356" y="711"/>
      <point x="410" y="668" type="curve"/>
      <point x="410" y="476" type="line"/>
      <point x="342" y="476" type="line"/>
      <point x="342" y="633" type="line"/>
      <point x="311" y="655"/>
      <point x="273" y="666"/>
      <point x="232" y="666" type="curve" smooth="yes"/>
      <point x="193" y="666"/>
      <point x="155" y="656"/>
      <point x="122" y="633" type="curve"/>
      <point x="122" y="87" type="line"/>
      <point x="153" y="65"/>
      <point x="192" y="54"/>
      <point x="232" y="54" type="curve" smooth="yes"/>
      <point x="272" y="54"/>
      <point x="310" y="64"/>
      <point x="342" y="87" type="curve"/>
      <point x="342" y="244" type="line"/>
      <point x="410" y="244" type="line"/>
    </contour>
  </outline>
</glyph>
<glyph name="D" format="1">
  <advance width="474"/>
  <unicode hex="0044"/>
  <outline>
    <contour>
      <point x="419" y="88" type="line"/>
      <point x="378" y="36"/>
      <point x="312" y="0"/>
      <point x="213" y="0" type="curve" smooth="yes"/>
      <point x="62" y="0" type="line"/>
      <point x="62" y="720" type="line"/>
      <point x="213" y="720" type="line" smooth="yes"/>
      <point x="310" y="720"/>
      <point x="376" y="686"/>
      <point x="419" y="632" type="curve"/>
    </contour>
    <contour>
      <point x="351" y="117" type="curve"/>
      <point x="351" y="604" type="line"/>
      <point x="324" y="635"/>
      <point x="275" y="658"/>
      <point x="212" y="658" type="curve" smooth="yes"/>
      <point x="130" y="658" type="line"/>
      <point x="130" y="62" type="line"/>
      <point x="212" y="62" type="line" smooth="yes"/>
      <point x="274" y="62"/>
      <point x="324" y="84"/>
    </contour>
  </outline>
</glyph>
<glyph name="E" format="1">
  <advance width="464"/>
  <unicode hex="0045"/>
  <outline>
    <contour>
      <point x="410" y="44" type="line"/>
      <point x="357" y="8"/>
      <point x="292" y="-7"/>
      <point x="232" y="-7" type="curve" smooth="yes"/>
      <point x="173" y="-7"/>
      <point x="109" y="7"/>
      <point x="55" y="44" type="curve"/>
      <point x="55" y="676" type="line"/>
      <point x="107" y="712"/>
      <point x="171" y="727"/>
      <point x="232" y="727" type="curve" smooth="yes"/>
      <point x="291" y="727"/>
      <point x="356" y="713"/>
      <point x="410" y="676" type="curve"/>
      <point x="410" y="476" type="line"/>
      <point x="342" y="476" type="line"/>
      <point x="342" y="638" type="line"/>
      <point x="311" y="656"/>
      <point x="273" y="666"/>
      <point x="232" y="666" type="curve" smooth="yes"/>
      <point x="193" y="666"/>
      <point x="155" y="657"/>
      <point x="122" y="638" type="curve"/>
      <point x="122" y="403" type="line"/>
      <point x="312" y="403" type="line"/>
      <point x="312" y="340" type="line"/>
      <point x="122" y="340" type="line"/>
      <point x="122" y="83" type="line"/>
      <point x="153" y="64"/>
      <point x="192" y="54"/>
      <point x="232" y="54" type="curve" smooth="yes"/>
      <point x="272" y="54"/>
      <point x="310" y="63"/>
      <point x="342" y="83" type="curve"/>
      <point x="342" y="244" type="line"/>
      <point x="410" y="244" type="line"/>
    </contour>
  </outline>
</glyph>
<glyph name="F" format="1">
  <advance width="437"/>
  <unicode hex="0046"/>
  <outline>
    <contour>
      <point x="400" y="476" type="line"/>
      <point x="332" y="476" type="line"/>
      <point x="332" y="639" type="line"/>
      <point x="302" y="658"/>
      <point x="268" y="666"/>
      <point x="227" y="666" type="curve" smooth="yes"/>
      <point x="188" y="666"/>
      <point x="154" y="659"/>
      <point x="122" y="639" type="curve"/>
      <point x="122" y="391" type="line"/>
      <point x="312" y="391" type="line"/>
      <point x="312" y="327" type="line"/>
      <point x="122" y="327" type="line"/>
      <point x="122" y="0" type="line"/>
      <point x="55" y="0" type="line"/>
      <point x="55" y="676" type="line"/>
      <point x="108" y="712"/>
      <point x="161" y="727"/>
      <point x="227" y="727" type="curve" smooth="yes"/>
      <point x="291" y="727"/>
      <point x="346" y="713"/>
      <point x="400" y="676" type="curve"/>
    </contour>
  </outline>
</glyph>
<glyph name="G" format="1">
  <advance width="475"/>
  <unicode hex="0047"/>
  <outline>
    <contour>
      <point x="420" y="52" type="line"/>
      <point x="367" y="10"/>
      <point x="302" y="-7"/>
      <point x="237" y="-7" type="curve" smooth="yes"/>
      <point x="173" y="-7"/>
      <point x="109" y="9"/>
      <point x="55" y="52" type="curve"/>
      <point x="55" y="668" type="line"/>
      <point x="108" y="710"/>
      <point x="172" y="727"/>
      <point x="237" y="727" type="curve" smooth="yes"/>
      <point x="300" y="727"/>
      <point x="366" y="712"/>
      <point x="420" y="668" type="curve"/>
      <point x="420" y="476" type="line"/>
      <point x="352" y="476" type="line"/>
      <point x="352" y="633" type="line"/>
      <point x="321" y="655"/>
      <point x="281" y="666"/>
      <point x="237" y="666" type="curve" smooth="yes"/>
      <point x="195" y="666"/>
      <point x="155" y="656"/>
      <point x="122" y="633" type="curve"/>
      <point x="122" y="87" type="line"/>
      <point x="154" y="65"/>
      <point x="194" y="54"/>
      <point x="237" y="54" type="curve" smooth="yes"/>
      <point x="280" y="54"/>
      <point x="320" y="65"/>
      <point x="352" y="87" type="curve"/>
      <point x="352" y="325" type="line"/>
      <point x="250" y="325" type="line"/>
      <point x="250" y="388" type="line"/>
      <point x="420" y="388" type="line"/>
    </contour>
  </outline>
</glyph>
<glyph name="H" format="1">
  <advance width="482"/>
  <unicode hex="0048"/>
  <outline>
    <contour>
      <point x="420" y="0" type="line"/>
      <point x="352" y="0" type="line"/>
      <point x="352" y="339" type="line"/>
      <point x="130" y="339" type="line"/>
      <point x="130" y="0" type="line"/>
      <point x="62" y="0" type="line"/>
      <point x="62" y="720" type="line"/>
      <point x="130" y="720" type="line"/>
      <point x="130" y="403" type="line"/>
      <point x="352" y="403" type="line"/>
      <point x="352" y="720" type="line"/>
      <point x="420" y="720" type="line"/>
    </contour>
  </outline>
</glyph>
<glyph name="J" format="1">
  <advance width="300"/>
  <unicode hex="004A"/>
  <outline>
    <contour>
      <point x="240" y="61" type="line"/>
      <point x="200" y="19"/>
      <point x="156" y="0"/>
      <point x="94" y="0" type="curve" smooth="yes"/>
      <point x="32" y="0" type="line"/>
      <point x="32" y="62" type="line"/>
      <point x="94" y="62" type="line" smooth="yes"/>
      <point x="128" y="62"/>
      <point x="153" y="73"/>
      <point x="172" y="93" type="curve"/>
      <point x="172" y="720" type="line"/>
      <point x="240" y="720" type="line"/>
    </contour>
  </outline>
</glyph>
<glyph name="K" format="1">
  <advance width="467"/>
  <unicode hex="004B"/>
  <outline>
    <contour>
      <point x="409" y="0" type="line"/>
      <point x="341" y="0" type="line"/>
      <point x="341" y="280" type="line"/>
      <point x="317" y="314"/>
      <point x="273" y="340"/>
      <point x="200" y="340" type="curve" smooth="yes"/>
      <point x="130" y="340" type="line"/>
      <point x="130" y="0" type="line"/>
      <point x="62" y="0" type="line"/>
      <point x="62" y="720" type="line"/>
      <point x="130" y="720" type="line"/>
      <point x="130" y="398" type="line"/>
      <point x="202" y="398" type="line" smooth="yes"/>
      <point x="268" y="398"/>
      <point x="312" y="420"/>
      <point x="338" y="455" type="curve"/>
      <point x="338" y="720" type="line"/>
      <point x="406" y="720" type="line"/>
      <point x="406" y="432" type="line"/>
      <point x="386" y="407"/>
      <point x="344" y="380"/>
      <point x="304" y="369" type="curve"/>
      <point x="346" y="357"/>
      <point x="384" y="333"/>
      <point x="409" y="303" type="curve"/>
    </contour>
  </outline>
</glyph>
<glyph name="L" format="1">
  <advance width="385"/>
  <unicode hex="004C"/>
  <outline>
    <contour>
      <point x="355" y="0" type="line"/>
      <point x="62" y="0" type="line"/>
      <point x="62" y="720" type="line"/>
      <point x="130" y="720" type="line"/>
      <point x="130" y="61" type="line"/>
      <point x="355" y="61" type="line"/>
    </contour>
  </outline>
</glyph>
<glyph name="M" format="1">
  <advance width="597"/>
  <unicode hex="004D"/>
  <outline>
    <contour>
      <point x="537" y="0" type="line"/>
      <point x="470" y="0" type="line"/>
      <point x="470" y="624" type="line"/>
      <point x="436" y="647"/>
      <point x="388" y="662"/>
      <point x="332" y="666" type="curve"/>
      <point x="332" y="0" type="line"/>
      <point x="265" y="0" type="line"/>
      <point x="265" y="666" type="line"/>
      <point x="210" y="662"/>
      <point x="161" y="648"/>
      <point x="127" y="624" type="curve"/>
      <point x="127" y="0" type="line"/>
      <point x="60" y="0" type="line"/>
      <point x="60" y="659" type="line"/>
      <point x="125" y="706"/>
      <point x="205" y="727"/>
      <point x="299" y="727" type="curve" smooth="yes"/>
      <point x="392" y="727"/>
      <point x="472" y="706"/>
      <point x="537" y="659" type="curve"/>
    </contour>
  </outline>
</glyph>
<glyph name="N" format="1">
  <advance width="485"/>
  <unicode hex="004E"/>
  <outline>
    <contour>
      <point x="425" y="0" type="line"/>
      <point x="357" y="0" type="line"/>
      <point x="357" y="628" type="line"/>
      <point x="329" y="652"/>
      <point x="295" y="666"/>
      <point x="242" y="666" type="curve" smooth="yes"/>
      <point x="191" y="666"/>
      <point x="157" y="654"/>
      <point x="127" y="628" type="curve"/>
      <point x="127" y="0" type="line"/>
      <point x="60" y="0" type="line"/>
      <point x="60" y="659" type="line"/>
      <point x="104" y="702"/>
      <point x="169" y="727"/>
      <point x="242" y="727" type="curve" smooth="yes"/>
      <point x="314" y="727"/>
      <point x="381" y="702"/>
      <point x="425" y="659" type="curve"/>
    </contour>
  </outline>
</glyph>
<glyph name="O" format="1">
  <advance width="485"/>
  <unicode hex="004F"/>
  <outline>
    <contour>
      <point x="430" y="60" type="line"/>
      <point x="377" y="14"/>
      <point x="314" y="-7"/>
      <point x="242" y="-7" type="curve" smooth="yes"/>
      <point x="171" y="-7"/>
      <point x="109" y="14"/>
      <point x="55" y="60" type="curve"/>
      <point x="55" y="661" type="line"/>
      <point x="108" y="706"/>
      <point x="170" y="727"/>
      <point x="242" y="727" type="curve" smooth="yes"/>
      <point x="313" y="727"/>
      <point x="376" y="707"/>
      <point x="430" y="661" type="curve"/>
    </contour>
    <contour>
      <point x="362" y="93" type="curve"/>
      <point x="362" y="627" type="line"/>
      <point x="331" y="651"/>
      <point x="291" y="666"/>
      <point x="242" y="666" type="curve" smooth="yes"/>
      <point x="195" y="666"/>
      <point x="155" y="652"/>
      <point x="122" y="627" type="curve"/>
      <point x="122" y="93" type="line"/>
      <point x="154" y="69"/>
      <point x="194" y="54"/>
      <point x="242" y="54" type="curve" smooth="yes"/>
      <point x="290" y="54"/>
      <point x="330" y="68"/>
    </contour>
  </outline>
</glyph>
<glyph name="P" format="1">
  <advance width="422"/>
  <unicode hex="0050"/>
  <outline>
    <contour>
      <point x="384" y="377" type="line"/>
      <point x="341" y="324"/>
      <point x="292" y="299"/>
      <point x="198" y="299" type="curve" smooth="yes"/>
      <point x="130" y="299" type="line"/>
      <point x="130" y="0" type="line"/>
      <point x="62" y="0" type="line"/>
      <point x="62" y="720" type="line"/>
      <point x="198" y="720" type="line" smooth="yes"/>
      <point x="292" y="720"/>
      <point x="341" y="696"/>
      <point x="384" y="642" type="curve"/>
    </contour>
    <contour>
      <point x="316" y="405" type="curve"/>
      <point x="316" y="614" type="line"/>
      <point x="291" y="644"/>
      <point x="258" y="658"/>
      <point x="197" y="658" type="curve" smooth="yes"/>
      <point x="130" y="658" type="line"/>
      <point x="130" y="361" type="line"/>
      <point x="197" y="361" type="line" smooth="yes"/>
      <point x="257" y="361"/>
      <point x="289" y="374"/>
    </contour>
  </outline>
</glyph>
<glyph name="Q" format="1">
  <advance width="485"/>
  <unicode hex="0051"/>
  <outline>
    <contour>
      <point x="430" y="60" type="line"/>
      <point x="384" y="20"/>
      <point x="331" y="-1"/>
      <point x="271" y="-6" type="curve"/>
      <point x="271" y="-100" type="line"/>
      <point x="207" y="-100" type="line"/>
      <point x="207" y="-5" type="line"/>
      <point x="151" y="1"/>
      <point x="100" y="22"/>
      <point x="55" y="60" type="curve"/>
      <point x="55" y="661" type="line"/>
      <point x="108" y="706"/>
      <point x="170" y="727"/>
      <point x="242" y="727" type="curve" smooth="yes"/>
      <point x="313" y="727"/>
      <point x="376" y="707"/>
      <point x="430" y="661" type="curve"/>
    </contour>
    <contour>
      <point x="362" y="93" type="curve"/>
      <point x="362" y="627" type="line"/>
      <point x="331" y="651"/>
      <point x="291" y="666"/>
      <point x="242" y="666" type="curve" smooth="yes"/>
      <point x="195" y="666"/>
      <point x="155" y="652"/>
      <point x="122" y="627" type="curve"/>
      <point x="122" y="93" type="line"/>
      <point x="146" y="75"/>
      <point x="174" y="62"/>
      <point x="207" y="57" type="curve"/>
      <point x="207" y="155" type="line"/>
      <point x="271" y="155" type="line"/>
      <point x="271" y="56" type="line"/>
      <point x="306" y="60"/>
      <point x="337" y="73"/>
    </contour>
  </outline>
</glyph>
<glyph name="R" format="1">
  <advance width="452"/>
  <unicode hex="0052"/>
  <outline>
    <contour>
      <point x="399" y="0" type="line"/>
      <point x="331" y="0" type="line"/>
      <point x="331" y="285" type="line"/>
      <point x="306" y="311"/>
      <point x="268" y="325"/>
      <point x="210" y="325" type="curve" smooth="yes"/>
      <point x="130" y="325" type="line"/>
      <point x="130" y="0" type="line"/>
      <point x="62" y="0" type="line"/>
      <point x="62" y="720" type="line"/>
      <point x="215" y="720" type="line" smooth="yes"/>
      <point x="309" y="720"/>
      <point x="353" y="700"/>
      <point x="396" y="647" type="curve"/>
      <point x="396" y="399" type="line"/>
      <point x="375" y="379"/>
      <point x="347" y="364"/>
      <point x="314" y="354" type="curve"/>
      <point x="346" y="347"/>
      <point x="379" y="329"/>
      <point x="399" y="308" type="curve"/>
    </contour>
    <contour>
      <point x="328" y="423" type="curve"/>
      <point x="328" y="620" type="line"/>
      <point x="303" y="650"/>
      <point x="275" y="658"/>
      <point x="215" y="658" type="curve" smooth="yes"/>
      <point x="130" y="658" type="line"/>
      <point x="130" y="383" type="line"/>
      <point x="212" y="383" type="line" smooth="yes"/>
      <point x="271" y="383"/>
      <point x="304" y="397"/>
    </contour>
  </outline>
</glyph>
<glyph name="S" format="1">
  <advance width="455"/>
  <unicode hex="0053"/>
  <outline>
    <contour>
      <point x="400" y="47" type="line"/>
      <point x="347" y="9"/>
      <point x="288" y="-7"/>
      <point x="227" y="-7" type="curve" smooth="yes"/>
      <point x="169" y="-7"/>
      <point x="109" y="8"/>
      <point x="55" y="47" type="curve"/>
      <point x="55" y="244" type="line"/>
      <point x="122" y="244" type="line"/>
      <point x="122" y="83" type="line"/>
      <point x="154" y="63"/>
      <point x="191" y="54"/>
      <point x="227" y="54" type="curve" smooth="yes"/>
      <point x="263" y="54"/>
      <point x="300" y="63"/>
      <point x="332" y="83" type="curve"/>
      <point x="332" y="266" type="line"/>
      <point x="56" y="428" type="line"/>
      <point x="56" y="673" type="line"/>
      <point x="109" y="712"/>
      <point x="163" y="727"/>
      <point x="227" y="727" type="curve" smooth="yes"/>
      <point x="290" y="727"/>
      <point x="345" y="712"/>
      <point x="399" y="673" type="curve"/>
      <point x="399" y="476" type="line"/>
      <point x="331" y="476" type="line"/>
      <point x="331" y="637" type="line"/>
      <point x="300" y="657"/>
      <point x="268" y="666"/>
      <point x="227" y="666" type="curve" smooth="yes"/>
      <point x="189" y="666"/>
      <point x="157" y="658"/>
      <point x="124" y="637" type="curve"/>
      <point x="124" y="461" type="line"/>
      <point x="400" y="299" type="line"/>
    </contour>
  </outline>
</glyph>
<glyph name="T" format="1">
  <advance width="412"/>
  <unicode hex="0054"/>
  <outline>
    <contour>
      <point x="381" y="659" type="line"/>
      <point x="240" y="659" type="line"/>
      <point x="240" y="0" type="line"/>
      <point x="172" y="0" type="line"/>
      <point x="172" y="659" type="line"/>
      <point x="31" y="659" type="line"/>
      <point x="31" y="720" type="line"/>
      <point x="381" y="720" type="line"/>
    </contour>
  </outline>
</glyph>
<glyph name="U" format="1">
  <advance width="485"/>
  <unicode hex="0055"/>
  <outline>
    <contour>
      <point x="425" y="61" type="line"/>
      <point x="381" y="19"/>
      <point x="316" y="-7"/>
      <point x="242" y="-7" type="curve" smooth="yes"/>
      <point x="170" y="-7"/>
      <point x="104" y="18"/>
      <point x="60" y="61" type="curve"/>
      <point x="60" y="720" type="line"/>
      <point x="127" y="720" type="line"/>
      <point x="127" y="93" type="line"/>
      <point x="156" y="68"/>
      <point x="189" y="54"/>
      <point x="242" y="54" type="curve" smooth="yes"/>
      <point x="295" y="54"/>
      <point x="329" y="68"/>
      <point x="357" y="93" type="curve"/>
      <point x="357" y="720" type="line"/>
      <point x="425" y="720" type="line"/>
    </contour>
  </outline>
</glyph>
<glyph name="V" format="1">
  <advance width="485"/>
  <unicode hex="0056"/>
  <outline>
    <contour>
      <point x="425" y="455" type="line"/>
      <point x="425" y="231"/>
      <point x="345" y="93"/>
      <point x="275" y="-5" type="curve"/>
      <point x="210" y="-5" type="line"/>
      <point x="140" y="93"/>
      <point x="60" y="231"/>
      <point x="60" y="455" type="curve" smooth="yes"/>
      <point x="60" y="720" type="line"/>
      <point x="127" y="720" type="line"/>
      <point x="127" y="456" type="line" smooth="yes"/>
      <point x="127" y="263"/>
      <point x="193" y="142"/>
      <point x="242" y="73" type="curve"/>
      <point x="291" y="142"/>
      <point x="357" y="263"/>
      <point x="357" y="456" type="curve" smooth="yes"/>
      <point x="357" y="720" type="line"/>
      <point x="425" y="720" type="line"/>
    </contour>
  </outline>
</glyph>
<glyph name="W" format="1">
  <advance width="597"/>
  <unicode hex="0057"/>
  <outline>
    <contour>
      <point x="537" y="61" type="line"/>
      <point x="472" y="15"/>
      <point x="393" y="-7"/>
      <point x="299" y="-7" type="curve" smooth="yes"/>
      <point x="206" y="-7"/>
      <point x="126" y="13"/>
      <point x="60" y="61" type="curve"/>
      <point x="60" y="720" type="line"/>
      <point x="127" y="720" type="line"/>
      <point x="127" y="97" type="line"/>
      <point x="161" y="73"/>
      <point x="209" y="59"/>
      <point x="265" y="55" type="curve"/>
      <point x="265" y="720" type="line"/>
      <point x="332" y="720" type="line"/>
      <point x="332" y="55" type="line"/>
      <point x="387" y="58"/>
      <point x="436" y="72"/>
      <point x="470" y="97" type="curve"/>
      <point x="470" y="720" type="line"/>
      <point x="537" y="720" type="line"/>
    </contour>
  </outline>
</glyph>
<glyph name="X" format="1">
  <advance width="448"/>
  <unicode hex="0058"/>
  <outline>
    <contour>
      <point x="390" y="0" type="line"/>
      <point x="322" y="0" type="line"/>
      <point x="322" y="301" type="line"/>
      <point x="299" y="327"/>
      <point x="262" y="340"/>
      <point x="224" y="340" type="curve" smooth="yes"/>
      <point x="187" y="340"/>
      <point x="149" y="327"/>
      <point x="126" y="301" type="curve"/>
      <point x="126" y="0" type="line"/>
      <point x="58" y="0" type="line"/>
      <point x="58" y="316" type="line"/>
      <point x="78" y="339"/>
      <point x="117" y="364"/>
      <point x="151" y="372" type="curve"/>
      <point x="117" y="382"/>
      <point x="83" y="403"/>
      <point x="61" y="427" type="curve"/>
      <point x="61" y="720" type="line"/>
      <point x="129" y="720" type="line"/>
      <point x="129" y="443" type="line"/>
      <point x="151" y="418"/>
      <point x="187" y="403"/>
      <point x="224" y="403" type="curve" smooth="yes"/>
      <point x="261" y="403"/>
      <point x="297" y="418"/>
      <point x="319" y="443" type="curve"/>
      <point x="319" y="720" type="line"/>
      <point x="387" y="720" type="line"/>
      <point x="387" y="427" type="line"/>
      <point x="365" y="403"/>
      <point x="331" y="382"/>
      <point x="297" y="372" type="curve"/>
      <point x="332" y="364"/>
      <point x="370" y="339"/>
      <point x="390" y="316" type="curve"/>
    </contour>
  </outline>
</glyph>
<glyph name="Y" format="1">
  <advance width="450"/>
  <unicode hex="0059"/>
  <outline>
    <contour>
      <point x="392" y="336" type="line"/>
      <point x="357" y="301"/>
      <point x="305" y="280"/>
      <point x="259" y="274" type="curve"/>
      <point x="259" y="0" type="line"/>
      <point x="191" y="0" type="line"/>
      <point x="191" y="274" type="line"/>
      <point x="146" y="280"/>
      <point x="94" y="300"/>
      <point x="57" y="336" type="curve"/>
      <point x="57" y="720" type="line"/>
      <point x="125" y="720" type="line"/>
      <point x="125" y="367" type="line"/>
      <point x="147" y="343"/>
      <point x="185" y="332"/>
      <point x="225" y="332" type="curve" smooth="yes"/>
      <point x="265" y="332"/>
      <point x="302" y="343"/>
      <point x="325" y="367" type="curve"/>
      <point x="325" y="720" type="line"/>
      <point x="392" y="720" type="line"/>
    </contour>
  </outline>
</glyph>
<glyph name="Z" format="1">
  <advance width="424"/>
  <unicode hex="005A"/>
  <outline>
    <contour>
      <point x="376" y="0" type="line"/>
      <point x="45" y="0" type="line"/>
      <point x="45" y="53" type="line"/>
      <point x="297" y="660" type="line"/>
      <point x="55" y="660" type="line"/>
      <point x="55" y="720" type="line"/>
      <point x="373" y="720" type="line"/>
      <point x="373" y="664" type="line"/>
      <point x="123" y="60" type="line"/>
      <point x="376" y="60" type="line"/>
    </contour>
  </outline>
</glyph>
<glyph name="bracketleft" format="1">
  <advance width="260"/>
  <unicode hex="005B"/>
  <outline>
    <contour>
      <point x="217" y="0" type="line"/>
      <point x="62" y="0" type="line"/>
      <point x="62" y="720" type="line"/>
      <point x="217" y="720" type="line"/>
      <point x="217" y="660" type="line"/>
      <point x="129" y="660" type="line"/>
      <point x="129" y="61" type="line"/>
      <point x="217" y="61" type="line"/>
    </contour>
  </outline>
</glyph>
<glyph name="backslash" format="1">
  <advance width="300"/>
  <unicode hex="005C"/>
  <outline>
    <contour>
      <point x="269" y="0" type="line"/>
      <point x="202" y="0" type="line"/>
      <point x="31" y="720" type="line"/>
      <point x="98" y="720" type="line"/>
    </contour>
  </outline>
</glyph>
<glyph name="bracketright" format="1">
  <advance width="260"/>
  <unicode hex="005D"/>
  <outline>
    <contour>
      <point x="197" y="0" type="line"/>
      <point x="42" y="0" type="line"/>
      <point x="42" y="61" type="line"/>
      <point x="131" y="61" type="line"/>
      <point x="131" y="660" type="line"/>
      <point x="42" y="660" type="line"/>
      <point x="42" y="720" type="line"/>
      <point x="197" y="720" type="line"/>
    </contour>
  </outline>
</glyph>
<glyph name="asciicircum" format="1">
  <advance width="370"/>
  <unicode hex="005E"/>
  <outline>
    <contour>
      <point x="337" y="350" type="line"/>
      <point x="268" y="350" type="line"/>
      <point x="185" y="638" type="line"/>
      <point x="101" y="350" type="line"/>
      <point x="32" y="350" type="line"/>
      <point x="150" y="726" type="line"/>
      <point x="220" y="726" type="line"/>
    </contour>
  </outline>
</glyph>
<glyph name="underscore" format="1">
  <advance width="375"/>
  <unicode hex="005F"/>
  <outline>
    <contour>
      <point x="375" y="-109" type="line"/>
      <point x="0" y="-109" type="line"/>
      <point x="0" y="-45" type="line"/>
      <point x="375" y="-45" type="line"/>
    </contour>
  </outline>
</glyph>
<glyph name="a" format="1">
  <advance width="345"/>
  <unicode hex="0061"/>
  <outline>
    <contour>
      <point x="301" y="34" type="line"/>
      <point x="266" y="5"/>
      <point x="226" y="-7"/>
      <point x="171" y="-7" type="curve" smooth="yes"/>
      <point x="118" y="-7"/>
      <point x="77" y="4"/>
      <point x="41" y="34" type="curve"/>
      <point x="41" y="262" type="line"/>
      <point x="70" y="288"/>
      <point x="112" y="302"/>
      <point x="160" y="302" type="curve" smooth="yes"/>
      <point x="189" y="302"/>
      <point x="214" y="298"/>
      <point x="238" y="289" type="curve"/>
      <point x="238" y="414" type="line"/>
      <point x="220" y="425"/>
      <point x="200" y="430"/>
      <point x="172" y="430" type="curve" smooth="yes"/>
      <point x="146" y="430"/>
      <point x="128" y="427"/>
      <point x="109" y="416" type="curve"/>
      <point x="109" y="345" type="line"/>
      <point x="44" y="345" type="line"/>
      <point x="44" y="450" type="line"/>
      <point x="79" y="477"/>
      <point x="124" y="487"/>
      <point x="172" y="487" type="curve" smooth="yes"/>
      <point x="220" y="487"/>
      <point x="265" y="476"/>
      <point x="301" y="447" type="curve"/>
    </contour>
    <contour>
      <point x="238" y="66" type="curve"/>
      <point x="238" y="231" type="line"/>
      <point x="223" y="239"/>
      <point x="199" y="245"/>
      <point x="171" y="245" type="curve" smooth="yes"/>
      <point x="143" y="245"/>
      <point x="123" y="242"/>
      <point x="104" y="228" type="curve"/>
      <point x="104" y="66" type="line"/>
      <point x="119" y="56"/>
      <point x="141" y="51"/>
      <point x="171" y="50" type="curve" smooth="yes"/>
      <point x="201" y="50"/>
      <point x="222" y="55"/>
    </contour>
  </outline>
</glyph>
<glyph name="b" format="1">
  <advance width="366"/>
  <unicode hex="0062"/>
  <outline>
    <contour>
      <point x="322" y="44" type="line"/>
      <point x="292" y="13"/>
      <point x="244" y="-7"/>
      <point x="185" y="-7" type="curve" smooth="yes"/>
      <point x="124" y="-7"/>
      <point x="77" y="14"/>
      <point x="47" y="44" type="curve"/>
      <point x="47" y="720" type="line"/>
      <point x="112" y="720" type="line"/>
      <point x="112" y="469" type="line"/>
      <point x="136" y="481"/>
      <point x="162" y="487"/>
      <point x="193" y="487" type="curve" smooth="yes"/>
      <point x="246" y="487"/>
      <point x="291" y="470"/>
      <point x="322" y="437" type="curve"/>
    </contour>
    <contour>
      <point x="257" y="76" type="curve"/>
      <point x="257" y="405" type="line"/>
      <point x="241" y="419"/>
      <point x="217" y="429"/>
      <point x="185" y="429" type="curve" smooth="yes"/>
      <point x="152" y="429"/>
      <point x="129" y="420"/>
      <point x="112" y="407" type="curve"/>
      <point x="112" y="76" type="line"/>
      <point x="129" y="61"/>
      <point x="153" y="51"/>
      <point x="185" y="51" type="curve" smooth="yes"/>
      <point x="218" y="51"/>
      <point x="242" y="62"/>
    </contour>
  </outline>
</glyph>
<glyph name="c" format="1">
  <advance width="350"/>
  <unicode hex="0063"/>
  <outline>
    <contour>
      <point x="309" y="37" type="line"/>
      <point x="273" y="6"/>
      <point x="225" y="-7"/>
      <point x="176" y="-7" type="curve" smooth="yes"/>
      <point x="129" y="-7"/>
      <point x="80" y="5"/>
      <point x="44" y="37" type="curve"/>
      <point x="44" y="443" type="line"/>
      <point x="79" y="474"/>
      <point x="127" y="487"/>
      <point x="176" y="487" type="curve" smooth="yes"/>
      <point x="223" y="487"/>
      <point x="272" y="475"/>
      <point x="309" y="443" type="curve"/>
      <point x="309" y="308" type="line"/>
      <point x="244" y="308" type="line"/>
      <point x="244" y="411" type="line"/>
      <point x="226" y="424"/>
      <point x="203" y="429"/>
      <point x="176" y="429" type="curve" smooth="yes"/>
      <point x="150" y="429"/>
      <point x="127" y="425"/>
      <point x="109" y="411" type="curve"/>
      <point x="109" y="69" type="line"/>
      <point x="126" y="56"/>
      <point x="149" y="52"/>
      <point x="176" y="51" type="curve" smooth="yes"/>
      <point x="202" y="51"/>
      <point x="225" y="55"/>
      <point x="244" y="69" type="curve"/>
      <point x="244" y="173" type="line"/>
      <point x="309" y="173" type="line"/>
    </contour>
  </outline>
</glyph>
<glyph name="d" format="1">
  <advance width="366"/>
  <unicode hex="0064"/>
  <outline>
    <contour>
      <point x="319" y="44" type="line"/>
      <point x="289" y="14"/>
      <point x="242" y="-7"/>
      <point x="181" y="-7" type="curve" smooth="yes"/>
      <point x="122" y="-7"/>
      <point x="74" y="13"/>
      <point x="44" y="44" type="curve"/>
      <point x="44" y="437" type="line"/>
      <point x="75" y="470"/>
      <point x="120" y="487"/>
      <point x="173" y="487" type="curve" smooth="yes"/>
      <point x="204" y="487"/>
      <point x="230" y="481"/>
      <point x="254" y="469" type="curve"/>
      <point x="254" y="720" type="line"/>
      <point x="319" y="720" type="line"/>
    </contour>
    <contour>
      <point x="254" y="76" type="curve"/>
      <point x="254" y="407" type="line"/>
      <point x="237" y="420"/>
      <point x="214" y="429"/>
      <point x="181" y="429" type="curve" smooth="yes"/>
      <point x="149" y="429"/>
      <point x="125" y="419"/>
      <point x="109" y="405" type="curve"/>
      <point x="109" y="76" type="line"/>
      <point x="124" y="62"/>
      <point x="148" y="51"/>
      <point x="181" y="51" type="curve" smooth="yes"/>
      <point x="213" y="51"/>
      <point x="237" y="61"/>
    </contour>
  </outline>
</glyph>
<glyph name="e" format="1">
  <advance width="347"/>
  <unicode hex="0065"/>
  <outline>
    <contour>
      <point x="304" y="37" type="line"/>
      <point x="268" y="6"/>
      <point x="222" y="-7"/>
      <point x="174" y="-7" type="curve" smooth="yes"/>
      <point x="126" y="-7"/>
      <point x="80" y="5"/>
      <point x="44" y="37" type="curve"/>
      <point x="44" y="440" type="line"/>
      <point x="77" y="472"/>
      <point x="122" y="487"/>
      <point x="173" y="487" type="curve" smooth="yes"/>
      <point x="224" y="487"/>
      <point x="269" y="472"/>
      <point x="303" y="440" type="curve"/>
      <point x="303" y="219" type="line"/>
      <point x="107" y="219" type="line"/>
      <point x="107" y="69" type="line"/>
      <point x="125" y="56"/>
      <point x="147" y="52"/>
      <point x="174" y="51" type="curve" smooth="yes"/>
      <point x="200" y="51"/>
      <point x="220" y="55"/>
      <point x="239" y="69" type="curve"/>
      <point x="239" y="165" type="line"/>
      <point x="304" y="165" type="line"/>
    </contour>
    <contour>
      <point x="239" y="275" type="line"/>
      <point x="239" y="409" type="line"/>
      <point x="223" y="421"/>
      <point x="204" y="429"/>
      <point x="173" y="429" type="curve" smooth="yes"/>
      <point x="144" y="429"/>
      <point x="125" y="422"/>
      <point x="107" y="409" type="curve"/>
      <point x="107" y="275" type="line"/>
    </contour>
  </outline>
</glyph>
<glyph name="f" format="1">
  <advance width="233"/>
  <unicode hex="0066"/>
  <outline>
    <contour>
      <point x="221" y="664" type="line"/>
      <point x="189" y="664" type="line" smooth="yes"/>
      <point x="168" y="664"/>
      <point x="147" y="656"/>
      <point x="134" y="641" type="curve"/>
      <point x="134" y="480" type="line"/>
      <point x="214" y="480" type="line"/>
      <point x="214" y="421" type="line"/>
      <point x="134" y="421" type="line"/>
      <point x="134" y="0" type="line"/>
      <point x="69" y="0" type="line"/>
      <point x="69" y="421" type="line"/>
      <point x="32" y="421" type="line"/>
      <point x="32" y="480" type="line"/>
      <point x="69" y="480" type="line"/>
      <point x="69" y="667" type="line"/>
      <point x="96" y="706"/>
      <point x="138" y="725"/>
      <point x="185" y="725" type="curve" smooth="yes"/>
      <point x="221" y="725" type="line"/>
    </contour>
  </outline>
</glyph>
<glyph name="g" format="1">
  <advance width="366"/>
  <unicode hex="0067"/>
  <outline>
    <contour>
      <point x="319" y="-139" type="line"/>
      <point x="289" y="-165"/>
      <point x="241" y="-182"/>
      <point x="181" y="-182" type="curve" smooth="yes"/>
      <point x="125" y="-182"/>
      <point x="74" y="-168"/>
      <point x="44" y="-142" type="curve"/>
      <point x="44" y="-41" type="line"/>
      <point x="109" y="-41" type="line"/>
      <point x="109" y="-109" type="line"/>
      <point x="125" y="-121"/>
      <point x="149" y="-125"/>
      <point x="181" y="-125" type="curve" smooth="yes"/>
      <point x="214" y="-125"/>
      <point x="237" y="-119"/>
      <point x="254" y="-106" type="curve"/>
      <point x="254" y="11" type="line"/>
      <point x="230" y="0"/>
      <point x="204" y="-7"/>
      <point x="173" y="-7" type="curve" smooth="yes"/>
      <point x="120" y="-7"/>
      <point x="75" y="10"/>
      <point x="44" y="43" type="curve"/>
      <point x="44" y="436" type="line"/>
      <point x="74" y="467"/>
      <point x="122" y="487"/>
      <point x="181" y="487" type="curve" smooth="yes"/>
      <point x="242" y="487"/>
      <point x="289" y="466"/>
      <point x="319" y="436" type="curve"/>
    </contour>
    <contour>
      <point x="254" y="74" type="curve"/>
      <point x="254" y="404" type="line"/>
      <point x="237" y="419"/>
      <point x="213" y="429"/>
      <point x="181" y="429" type="curve" smooth="yes"/>
      <point x="148" y="429"/>
      <point x="124" y="418"/>
      <point x="109" y="404" type="curve"/>
      <point x="109" y="76" type="line"/>
      <point x="125" y="61"/>
      <point x="149" y="51"/>
      <point x="181" y="51" type="curve" smooth="yes"/>
      <point x="214" y="51"/>
      <point x="237" y="61"/>
    </contour>
  </outline>
</glyph>
<glyph name="h" format="1">
  <advance width="365"/>
  <unicode hex="0068"/>
  <outline>
    <contour>
      <point x="317" y="0" type="line"/>
      <point x="252" y="0" type="line"/>
      <point x="252" y="409" type="line"/>
      <point x="235" y="423"/>
      <point x="210" y="429"/>
      <point x="182" y="429" type="curve" smooth="yes"/>
      <point x="156" y="429"/>
      <point x="131" y="422"/>
      <point x="112" y="409" type="curve"/>
      <point x="112" y="0" type="line"/>
      <point x="47" y="0" type="line"/>
      <point x="47" y="720" type="line"/>
      <point x="112" y="720" type="line"/>
      <point x="112" y="470" type="line"/>
      <point x="137" y="482"/>
      <point x="161" y="487"/>
      <point x="193" y="487" type="curve" smooth="yes"/>
      <point x="244" y="487"/>
      <point x="285" y="473"/>
      <point x="317" y="441" type="curve"/>
    </contour>
  </outline>
</glyph>
<glyph name="i" format="1">
  <advance width="172"/>
  <unicode hex="0069"/>
  <outline>
    <contour>
      <point x="121" y="610" type="line"/>
      <point x="51" y="610" type="line"/>
      <point x="51" y="720" type="line"/>
      <point x="121" y="720" type="line"/>
    </contour>
    <contour>
      <point x="119" y="0" type="line"/>
      <point x="54" y="0" type="line"/>
      <point x="54" y="480" type="line"/>
      <point x="119" y="480" type="line"/>
    </contour>
  </outline>
</glyph>
<glyph name="j" format="1">
  <advance width="172"/>
  <unicode hex="006A"/>
  <outline>
    <contour>
      <point x="121" y="610" type="line"/>
      <point x="51" y="610" type="line"/>
      <point x="51" y="720" type="line"/>
      <point x="121" y="720" type="line"/>
    </contour>
    <contour>
      <point x="119" y="-120" type="line"/>
      <point x="92" y="-158"/>
      <point x="50" y="-177"/>
      <point x="2" y="-177" type="curve" smooth="yes"/>
      <point x="-24" y="-177" type="line"/>
      <point x="-24" y="-117" type="line"/>
      <point x="-1" y="-117" type="line" smooth="yes"/>
      <point x="19" y="-117"/>
      <point x="41" y="-109"/>
      <point x="54" y="-94" type="curve"/>
      <point x="54" y="480" type="line"/>
      <point x="119" y="480" type="line"/>
    </contour>
  </outline>
</glyph>
<glyph name="k" format="1">
  <advance width="344"/>
  <unicode hex="006B"/>
  <outline>
    <contour>
      <point x="300" y="0" type="line"/>
      <point x="235" y="0" type="line"/>
      <point x="235" y="163" type="line"/>
      <point x="218" y="194"/>
      <point x="179" y="217"/>
      <point x="128" y="217" type="curve" smooth="yes"/>
      <point x="112" y="217" type="line"/>
      <point x="112" y="0" type="line"/>
      <point x="47" y="0" type="line"/>
      <point x="47" y="720" type="line"/>
      <point x="112" y="720" type="line"/>
      <point x="112" y="273" type="line"/>
      <point x="128" y="273" type="line" smooth="yes"/>
      <point x="170" y="273"/>
      <point x="206" y="292"/>
      <point x="227" y="324" type="curve"/>
      <point x="227" y="480" type="line"/>
      <point x="292" y="480" type="line"/>
      <point x="292" y="304" type="line"/>
      <point x="273" y="279"/>
      <point x="244" y="257"/>
      <point x="207" y="245" type="curve"/>
      <point x="246" y="234"/>
      <point x="275" y="217"/>
      <point x="300" y="186" type="curve"/>
    </contour>
  </outline>
</glyph>
<glyph name="m" format="1">
  <advance width="500"/>
  <unicode hex="006D"/>
  <outline>
    <contour>
      <point x="452" y="0" type="line"/>
      <point x="388" y="0" type="line"/>
      <point x="388" y="404" type="line"/>
      <point x="362" y="417"/>
      <point x="333" y="426"/>
      <point x="282" y="429" type="curve"/>
      <point x="282" y="0" type="line"/>
      <point x="218" y="0" type="line"/>
      <point x="218" y="429" type="line"/>
      <point x="168" y="426"/>
      <point x="139" y="418"/>
      <point x="112" y="404" type="curve"/>
      <point x="112" y="0" type="line"/>
      <point x="47" y="0" type="line"/>
      <point x="47" y="437" type="line"/>
      <point x="103" y="471"/>
      <point x="169" y="487"/>
      <point x="250" y="487" type="curve" smooth="yes"/>
      <point x="330" y="487"/>
      <point x="396" y="471"/>
      <point x="452" y="437" type="curve"/>
    </contour>
  </outline>
</glyph>
<glyph name="n" format="1">
  <advance width="365"/>
  <unicode hex="006E"/>
  <outline>
    <contour>
      <point x="317" y="0" type="line"/>
      <point x="252" y="0" type="line"/>
      <point x="252" y="409" type="line"/>
      <point x="235" y="423"/>
      <point x="210" y="429"/>
      <point x="182" y="429" type="curve" smooth="yes"/>
      <point x="156" y="429"/>
      <point x="131" y="424"/>
      <point x="112" y="409" type="curve"/>
      <point x="112" y="0" type="line"/>
      <point x="47" y="0" type="line"/>
      <point x="47" y="443" type="line"/>
      <point x="83" y="474"/>
      <point x="134" y="487"/>
      <point x="182" y="487" type="curve" smooth="yes"/>
      <point x="230" y="487"/>
      <point x="281" y="475"/>
      <point x="317" y="443" type="curve"/>
    </contour>
  </outline>
</glyph>
<glyph name="o" format="1">
  <advance width="362"/>
  <unicode hex="006F"/>
  <outline>
    <contour>
      <point x="319" y="44" type="line"/>
      <point x="289" y="14"/>
      <point x="242" y="-7"/>
      <point x="181" y="-7" type="curve" smooth="yes"/>
      <point x="122" y="-7"/>
      <point x="74" y="13"/>
      <point x="44" y="44" type="curve"/>
      <point x="44" y="436" type="line"/>
      <point x="73" y="466"/>
      <point x="121" y="487"/>
      <point x="181" y="487" type="curve" smooth="yes"/>
      <point x="240" y="487"/>
      <point x="288" y="467"/>
      <point x="319" y="436" type="curve"/>
    </contour>
    <contour>
      <point x="254" y="76" type="curve"/>
      <point x="254" y="405" type="line"/>
      <point x="238" y="419"/>
      <point x="214" y="429"/>
      <point x="181" y="429" type="curve" smooth="yes"/>
      <point x="150" y="429"/>
      <point x="125" y="419"/>
      <point x="109" y="405" type="curve"/>
      <point x="109" y="76" type="line"/>
      <point x="124" y="62"/>
      <point x="148" y="51"/>
      <point x="181" y="51" type="curve" smooth="yes"/>
      <point x="213" y="51"/>
      <point x="237" y="61"/>
    </contour>
  </outline>
</glyph>
<glyph name="p" format="1">
  <advance width="366"/>
  <unicode hex="0070"/>
  <outline>
    <contour>
      <point x="322" y="43" type="line"/>
      <point x="291" y="10"/>
      <point x="246" y="-7"/>
      <point x="193" y="-7" type="curve" smooth="yes"/>
      <point x="162" y="-7"/>
      <point x="136" y="0"/>
      <point x="112" y="11" type="curve"/>
      <point x="112" y="-175" type="line"/>
      <point x="47" y="-175" type="line"/>
      <point x="47" y="436" type="line"/>
      <point x="77" y="466"/>
      <point x="124" y="487"/>
      <point x="185" y="487" type="curve" smooth="yes"/>
      <point x="244" y="487"/>
      <point x="292" y="467"/>
      <point x="322" y="436" type="curve"/>
    </contour>
    <contour>
      <point x="257" y="76" type="curve"/>
      <point x="257" y="404" type="line"/>
      <point x="242" y="418"/>
      <point x="218" y="429"/>
      <point x="185" y="429" type="curve" smooth="yes"/>
      <point x="153" y="429"/>
      <point x="129" y="419"/>
      <point x="112" y="404" type="curve"/>
      <point x="112" y="74" type="line"/>
      <point x="129" y="61"/>
      <point x="152" y="51"/>
      <point x="185" y="51" type="curve" smooth="yes"/>
      <point x="217" y="51"/>
      <point x="241" y="61"/>
    </contour>
  </outline>
</glyph>
<glyph name="q" format="1">
  <advance width="366"/>
  <unicode hex="0071"/>
  <outline>
    <contour>
      <point x="319" y="-175" type="line"/>
      <point x="254" y="-175" type="line"/>
      <point x="254" y="11" type="line"/>
      <point x="230" y="0"/>
      <point x="204" y="-7"/>
      <point x="173" y="-7" type="curve" smooth="yes"/>
      <point x="120" y="-7"/>
      <point x="75" y="10"/>
      <point x="44" y="43" type="curve"/>
      <point x="44" y="436" type="line"/>
      <point x="74" y="467"/>
      <point x="122" y="487"/>
      <point x="181" y="487" type="curve" smooth="yes"/>
      <point x="242" y="487"/>
      <point x="289" y="466"/>
      <point x="319" y="436" type="curve"/>
    </contour>
    <contour>
      <point x="254" y="74" type="curve"/>
      <point x="254" y="404" type="line"/>
      <point x="237" y="419"/>
      <point x="213" y="429"/>
      <point x="181" y="429" type="curve" smooth="yes"/>
      <point x="148" y="429"/>
      <point x="124" y="418"/>
      <point x="109" y="404" type="curve"/>
      <point x="109" y="76" type="line"/>
      <point x="125" y="61"/>
      <point x="149" y="51"/>
      <point x="181" y="51" type="curve" smooth="yes"/>
      <point x="214" y="51"/>
      <point x="237" y="61"/>
    </contour>
  </outline>
</glyph>
<glyph name="r" format="1">
  <advance width="246"/>
  <unicode hex="0072"/>
  <outline>
    <contour>
      <point x="226" y="423" type="line"/>
      <point x="177" y="423" type="line" smooth="yes"/>
      <point x="154" y="423"/>
      <point x="128" y="414"/>
      <point x="112" y="399" type="curve"/>
      <point x="112" y="0" type="line"/>
      <point x="47" y="0" type="line"/>
      <point x="47" y="431" type="line"/>
      <point x="79" y="464"/>
      <point x="123" y="483"/>
      <point x="174" y="483" type="curve" smooth="yes"/>
      <point x="226" y="483" type="line"/>
    </contour>
  </outline>
</glyph>
<glyph name="s" format="1">
  <advance width="343"/>
  <unicode hex="0073"/>
  <outline>
    <contour>
      <point x="299" y="34" type="line"/>
      <point x="263" y="4"/>
      <point x="218" y="-7"/>
      <point x="171" y="-7" type="curve" smooth="yes"/>
      <point x="122" y="-7"/>
      <point x="79" y="5"/>
      <point x="44" y="34" type="curve"/>
      <point x="44" y="172" type="line"/>
      <point x="108" y="172" type="line"/>
      <point x="108" y="66" type="line"/>
      <point x="124" y="55"/>
      <point x="145" y="50"/>
      <point x="171" y="50" type="curve" smooth="yes"/>
      <point x="199" y="51"/>
      <point x="216" y="55"/>
      <point x="235" y="67" type="curve"/>
      <point x="235" y="172" type="line"/>
      <point x="45" y="276" type="line"/>
      <point x="45" y="446" type="line"/>
      <point x="79" y="475"/>
      <point x="122" y="487"/>
      <point x="171" y="487" type="curve" smooth="yes"/>
      <point x="218" y="487"/>
      <point x="262" y="476"/>
      <point x="298" y="446" type="curve"/>
      <point x="298" y="308" type="line"/>
      <point x="234" y="308" type="line"/>
      <point x="234" y="415" type="line"/>
      <point x="215" y="426"/>
      <point x="198" y="430"/>
      <point x="171" y="430" type="curve" smooth="yes"/>
      <point x="145" y="430"/>
      <point x="128" y="426"/>
      <point x="109" y="414" type="curve"/>
      <point x="109" y="308" type="line"/>
      <point x="299" y="204" type="line"/>
    </contour>
  </outline>
</glyph>
<glyph name="t" format="1">
  <advance width="248"/>
  <unicode hex="0074"/>
  <outline>
    <contour>
      <point x="219" y="-5" type="line"/>
      <point x="183" y="-5" type="line" smooth="yes"/>
      <point x="135" y="-5"/>
      <point x="93" y="14"/>
      <point x="66" y="53" type="curve"/>
      <point x="66" y="421" type="line"/>
      <point x="29" y="421" type="line"/>
      <point x="29" y="480" type="line"/>
      <point x="66" y="480" type="line"/>
      <point x="66" y="640" type="line"/>
      <point x="131" y="640" type="line"/>
      <point x="131" y="480" type="line"/>
      <point x="211" y="480" type="line"/>
      <point x="211" y="421" type="line"/>
      <point x="131" y="421" type="line"/>
      <point x="131" y="79" type="line"/>
      <point x="144" y="64"/>
      <point x="166" y="56"/>
      <point x="186" y="56" type="curve" smooth="yes"/>
      <point x="219" y="56" type="line"/>
    </contour>
  </outline>
</glyph>
<glyph name="u" format="1">
  <advance width="365"/>
  <unicode hex="0075"/>
  <outline>
    <contour>
      <point x="317" y="37" type="line"/>
      <point x="282" y="6"/>
      <point x="231" y="-7"/>
      <point x="182" y="-7" type="curve" smooth="yes"/>
      <point x="135" y="-7"/>
      <point x="84" y="5"/>
      <point x="47" y="37" type="curve"/>
      <point x="47" y="480" type="line"/>
      <point x="112" y="480" type="line"/>
      <point x="112" y="71" type="line"/>
      <point x="130" y="58"/>
      <point x="155" y="51"/>
      <point x="182" y="51" type="curve" smooth="yes"/>
      <point x="209" y="51"/>
      <point x="234" y="57"/>
      <point x="252" y="71" type="curve"/>
      <point x="252" y="480" type="line"/>
      <point x="317" y="480" type="line"/>
    </contour>
  </outline>
</glyph>
<glyph name="v" format="1">
  <advance width="365"/>
  <unicode hex="0076"/>
  <outline>
    <contour>
      <point x="317" y="331" type="line"/>
      <point x="317" y="192"/>
      <point x="284" y="85"/>
      <point x="214" y="-5" type="curve"/>
      <point x="152" y="-5" type="line"/>
      <point x="82" y="84"/>
      <point x="48" y="190"/>
      <point x="48" y="331" type="curve" smooth="yes"/>
      <point x="48" y="480" type="line"/>
      <point x="114" y="480" type="line"/>
      <point x="114" y="332" type="line" smooth="yes"/>
      <point x="114" y="215"/>
      <point x="138" y="129"/>
      <point x="183" y="67" type="curve"/>
      <point x="227" y="128"/>
      <point x="252" y="214"/>
      <point x="252" y="332" type="curve" smooth="yes"/>
      <point x="252" y="480" type="line"/>
      <point x="317" y="480" type="line"/>
    </contour>
  </outline>
</glyph>
<glyph name="w" format="1">
  <advance width="500"/>
  <unicode hex="0077"/>
  <outline>
    <contour>
      <point x="452" y="44" type="line"/>
      <point x="398" y="10"/>
      <point x="331" y="-7"/>
      <point x="250" y="-7" type="curve" smooth="yes"/>
      <point x="171" y="-7"/>
      <point x="104" y="9"/>
      <point x="47" y="44" type="curve"/>
      <point x="47" y="480" type="line"/>
      <point x="112" y="480" type="line"/>
      <point x="112" y="77" type="line"/>
      <point x="138" y="63"/>
      <point x="167" y="54"/>
      <point x="218" y="52" type="curve"/>
      <point x="218" y="480" type="line"/>
      <point x="282" y="480" type="line"/>
      <point x="282" y="52" type="line"/>
      <point x="332" y="54"/>
      <point x="361" y="63"/>
      <point x="388" y="77" type="curve"/>
      <point x="388" y="480" type="line"/>
      <point x="452" y="480" type="line"/>
    </contour>
  </outline>
</glyph>
<glyph name="x" format="1">
  <advance width="355"/>
  <unicode hex="0078"/>
  <outline>
    <contour>
      <point x="309" y="0" type="line"/>
      <point x="244" y="0" type="line"/>
      <point x="244" y="181" type="line"/>
      <point x="232" y="200"/>
      <point x="210" y="214"/>
      <point x="177" y="214" type="curve" smooth="yes"/>
      <point x="145" y="214"/>
      <point x="122" y="200"/>
      <point x="111" y="181" type="curve"/>
      <point x="111" y="0" type="line"/>
      <point x="46" y="0" type="line"/>
      <point x="46" y="196" type="line"/>
      <point x="66" y="220"/>
      <point x="89" y="234"/>
      <point x="118" y="245" type="curve"/>
      <point x="88" y="255"/>
      <point x="64" y="271"/>
      <point x="49" y="292" type="curve"/>
      <point x="49" y="480" type="line"/>
      <point x="114" y="480" type="line"/>
      <point x="114" y="305" type="line"/>
      <point x="127" y="286"/>
      <point x="148" y="275"/>
      <point x="177" y="275" type="curve" smooth="yes"/>
      <point x="206" y="275"/>
      <point x="227" y="286"/>
      <point x="241" y="305" type="curve"/>
      <point x="241" y="480" type="line"/>
      <point x="306" y="480" type="line"/>
      <point x="306" y="292" type="line"/>
      <point x="290" y="271"/>
      <point x="267" y="255"/>
      <point x="236" y="245" type="curve"/>
      <point x="265" y="234"/>
      <point x="288" y="220"/>
      <point x="309" y="196" type="curve"/>
    </contour>
  </outline>
</glyph>
<glyph name="y" format="1">
  <advance width="365"/>
  <unicode hex="0079"/>
  <outline>
    <contour>
      <point x="317" y="-139" type="line"/>
      <point x="288" y="-165"/>
      <point x="243" y="-182"/>
      <point x="182" y="-182" type="curve" smooth="yes"/>
      <point x="126" y="-182"/>
      <point x="78" y="-168"/>
      <point x="47" y="-142" type="curve"/>
      <point x="47" y="-41" type="line"/>
      <point x="112" y="-41" type="line"/>
      <point x="112" y="-109" type="line"/>
      <point x="128" y="-121"/>
      <point x="149" y="-125"/>
      <point x="182" y="-125" type="curve" smooth="yes"/>
      <point x="216" y="-125"/>
      <point x="236" y="-119"/>
      <point x="252" y="-106" type="curve"/>
      <point x="252" y="10" type="line"/>
      <point x="228" y="-2"/>
      <point x="204" y="-7"/>
      <point x="172" y="-7" type="curve" smooth="yes"/>
      <point x="121" y="-7"/>
      <point x="80" y="7"/>
      <point x="47" y="39" type="curve"/>
      <point x="47" y="480" type="line"/>
      <point x="112" y="480" type="line"/>
      <point x="112" y="71" type="line"/>
      <point x="130" y="58"/>
      <point x="155" y="51"/>
      <point x="182" y="51" type="curve" smooth="yes"/>
      <point x="209" y="51"/>
      <point x="234" y="58"/>
      <point x="252" y="71" type="curve"/>
      <point x="252" y="480" type="line"/>
      <point x="317" y="480" type="line"/>
    </contour>
  </outline>
</glyph>
<glyph name="z" format="1">
  <advance width="315"/>
  <unicode hex="007A"/>
  <outline>
    <contour>
      <point x="280" y="0" type="line"/>
      <point x="31" y="0" type="line"/>
      <point x="31" y="50" type="line"/>
      <point x="207" y="423" type="line"/>
      <point x="44" y="423" type="line"/>
      <point x="44" y="480" type="line"/>
      <point x="278" y="480" type="line"/>
      <point x="278" y="429" type="line"/>
      <point x="104" y="58" type="line"/>
      <point x="280" y="58" type="line"/>
    </contour>
  </outline>
</glyph>
<glyph name="braceleft" format="1">
  <advance width="281"/>
  <unicode hex="007B"/>
  <outline>
    <contour>
      <point x="241" y="-12" type="line"/>
      <point x="176" y="-12"/>
      <point x="119" y="16"/>
      <point x="86" y="58" type="curve"/>
      <point x="86" y="304" type="line"/>
      <point x="73" y="323"/>
      <point x="48" y="334"/>
      <point x="19" y="334" type="curve"/>
      <point x="19" y="393" type="line"/>
      <point x="47" y="393"/>
      <point x="73" y="404"/>
      <point x="86" y="423" type="curve"/>
      <point x="86" y="657" type="line"/>
      <point x="119" y="698"/>
      <point x="175" y="726"/>
      <point x="241" y="726" type="curve"/>
      <point x="241" y="661" type="line"/>
      <point x="209" y="660"/>
      <point x="173" y="645"/>
      <point x="154" y="625" type="curve"/>
      <point x="154" y="406" type="line"/>
      <point x="139" y="386"/>
      <point x="115" y="372"/>
      <point x="86" y="364" type="curve"/>
      <point x="114" y="356"/>
      <point x="138" y="341"/>
      <point x="154" y="321" type="curve"/>
      <point x="154" y="90" type="line"/>
      <point x="172" y="70"/>
      <point x="208" y="55"/>
      <point x="241" y="54" type="curve"/>
    </contour>
  </outline>
</glyph>
<glyph name="bar" format="1">
  <advance width="200"/>
  <unicode hex="007C"/>
  <outline>
    <contour>
      <point x="131" y="-125" type="line"/>
      <point x="68" y="-125" type="line"/>
      <point x="68" y="788" type="line"/>
      <point x="131" y="788" type="line"/>
    </contour>
  </outline>
</glyph>
<glyph name="braceright" format="1">
  <advance width="281"/>
  <unicode hex="007D"/>
  <outline>
    <contour>
      <point x="262" y="334" type="line"/>
      <point x="233" y="334"/>
      <point x="208" y="323"/>
      <point x="195" y="304" type="curve"/>
      <point x="195" y="58" type="line"/>
      <point x="162" y="16"/>
      <point x="105" y="-12"/>
      <point x="40" y="-12" type="curve"/>
      <point x="40" y="54" type="line"/>
      <point x="73" y="55"/>
      <point x="109" y="70"/>
      <point x="127" y="90" type="curve"/>
      <point x="127" y="321" type="line"/>
      <point x="143" y="341"/>
      <point x="167" y="356"/>
      <point x="195" y="364" type="curve"/>
      <point x="166" y="372"/>
      <point x="142" y="386"/>
      <point x="127" y="406" type="curve"/>
      <point x="127" y="625" type="line"/>
      <point x="108" y="645"/>
      <point x="72" y="660"/>
      <point x="40" y="661" type="curve"/>
      <point x="40" y="726" type="line"/>
      <point x="106" y="726"/>
      <point x="162" y="698"/>
      <point x="195" y="657" type="curve"/>
      <point x="195" y="423" type="line"/>
      <point x="208" y="404"/>
      <point x="234" y="393"/>
      <point x="262" y="393" type="curve"/>
    </contour>
  </outline>
</glyph>
<glyph name="asciitilde" format="1">
  <advance width="334"/>
  <unicode hex="007E"/>
  <outline>
    <contour>
      <point x="301" y="444" type="line"/>
      <point x="256" y="299" type="line"/>
      <point x="191" y="299" type="line"/>
      <point x="122" y="385" type="line"/>
      <point x="94" y="299" type="line"/>
      <point x="32" y="299" type="line"/>
      <point x="77" y="444" type="line"/>
      <point x="142" y="444" type="line"/>
      <point x="212" y="358" type="line"/>
      <point x="240" y="444" type="line"/>
    </contour>
  </outline>
</glyph>
<glyph name="exclamdown" format="1">
  <advance width="165"/>
  <unicode hex="00A1"/>
  <outline>
    <contour>
      <point x="117" y="610" type="line"/>
      <point x="47" y="610" type="line"/>
      <point x="47" y="720" type="line"/>
      <point x="117" y="720" type="line"/>
    </contour>
    <contour>
      <point x="115" y="0" type="line"/>
      <point x="49" y="0" type="line"/>
      <point x="49" y="540" type="line"/>
      <point x="115" y="540" type="line"/>
    </contour>
  </outline>
</glyph>
<glyph name="cent" format="1">
  <advance width="350"/>
  <unicode hex="00A2"/>
  <outline>
    <contour>
      <point x="309" y="158" type="line"/>
      <point x="281" y="133"/>
      <point x="245" y="120"/>
      <point x="207" y="115" type="curve"/>
      <point x="207" y="0" type="line"/>
      <point x="145" y="0" type="line"/>
      <point x="145" y="115" type="line"/>
      <point x="108" y="120"/>
      <point x="72" y="133"/>
      <point x="44" y="158" type="curve"/>
      <point x="44" y="564" type="line"/>
      <point x="71" y="588"/>
      <point x="107" y="602"/>
      <point x="145" y="606" type="curve"/>
      <point x="145" y="720" type="line"/>
      <point x="207" y="720" type="line"/>
      <point x="207" y="606" type="line"/>
      <point x="244" y="602"/>
      <point x="280" y="588"/>
      <point x="309" y="564" type="curve"/>
      <point x="309" y="428" type="line"/>
      <point x="244" y="428" type="line"/>
      <point x="244" y="533" type="line"/>
      <point x="226" y="546"/>
      <point x="203" y="551"/>
      <point x="176" y="551" type="curve" smooth="yes"/>
      <point x="150" y="551"/>
      <point x="127" y="547"/>
      <point x="109" y="533" type="curve"/>
      <point x="109" y="188" type="line"/>
      <point x="126" y="175"/>
      <point x="149" y="171"/>
      <point x="176" y="170" type="curve" smooth="yes"/>
      <point x="202" y="170"/>
      <point x="225" y="174"/>
      <point x="244" y="188" type="curve"/>
      <point x="244" y="293" type="line"/>
      <point x="309" y="293" type="line"/>
    </contour>
  </outline>
</glyph>
<glyph name="sterling" format="1">
  <advance width="433"/>
  <unicode hex="00A3"/>
  <outline>
    <contour>
      <point x="397" y="0" type="line"/>
      <point x="39" y="0" type="line"/>
      <point x="39" y="61" type="line"/>
      <point x="86" y="61" type="line"/>
      <point x="86" y="327" type="line"/>
      <point x="39" y="327" type="line"/>
      <point x="39" y="391" type="line"/>
      <point x="86" y="391" type="line"/>
      <point x="86" y="678" type="line"/>
      <point x="134" y="713"/>
      <point x="188" y="727"/>
      <point x="241" y="727" type="curve" smooth="yes"/>
      <point x="293" y="727"/>
      <point x="347" y="714"/>
      <point x="396" y="678" type="curve"/>
      <point x="396" y="476" type="line"/>
      <point x="329" y="476" type="line"/>
      <point x="329" y="642" type="line"/>
      <point x="303" y="658"/>
      <point x="276" y="666"/>
      <point x="241" y="666" type="curve" smooth="yes"/>
      <point x="207" y="666"/>
      <point x="181" y="658"/>
      <point x="154" y="642" type="curve"/>
      <point x="154" y="391" type="line"/>
      <point x="299" y="391" type="line"/>
      <point x="299" y="327" type="line"/>
      <point x="154" y="327" type="line"/>
      <point x="154" y="61" type="line"/>
      <point x="397" y="61" type="line"/>
    </contour>
  </outline>
</glyph>
<glyph name="yen" format="1">
  <advance width="450"/>
  <unicode hex="00A5"/>
  <outline>
    <contour>
      <point x="392" y="336" type="line"/>
      <point x="357" y="301"/>
      <point x="304" y="280"/>
      <point x="258" y="274" type="curve"/>
      <point x="258" y="175" type="line"/>
      <point x="354" y="175" type="line"/>
      <point x="354" y="115" type="line"/>
      <point x="258" y="115" type="line"/>
      <point x="258" y="0" type="line"/>
      <point x="192" y="0" type="line"/>
      <point x="192" y="115" type="line"/>
      <point x="96" y="115" type="line"/>
      <point x="96" y="175" type="line"/>
      <point x="192" y="175" type="line"/>
      <point x="192" y="274" type="line"/>
      <point x="147" y="280"/>
      <point x="94" y="300"/>
      <point x="57" y="336" type="curve"/>
      <point x="57" y="720" type="line"/>
      <point x="125" y="720" type="line"/>
      <point x="125" y="367" type="line"/>
      <point x="147" y="343"/>
      <point x="185" y="332"/>
      <point x="225" y="332" type="curve" smooth="yes"/>
      <point x="265" y="332"/>
      <point x="302" y="343"/>
      <point x="325" y="367" type="curve"/>
      <point x="325" y="720" type="line"/>
      <point x="392" y="720" type="line"/>
    </contour>
  </outline>
</glyph>
<glyph name="section" format="1">
  <advance width="445"/>
  <unicode hex="00A7"/>
  <outline>
    <contour>
      <point x="390" y="143" type="line"/>
      <point x="371" y="127"/>
      <point x="347" y="114"/>
      <point x="318" y="104" type="curve"/>
      <point x="382" y="51" type="line"/>
      <point x="382" y="-135" type="line"/>
      <point x="334" y="-169"/>
      <point x="278" y="-182"/>
      <point x="222" y="-182" type="curve" smooth="yes"/>
      <point x="168" y="-182"/>
      <point x="111" y="-170"/>
      <point x="62" y="-135" type="curve"/>
      <point x="62" y="39" type="line"/>
      <point x="130" y="39" type="line"/>
      <point x="130" y="-99" type="line"/>
      <point x="155" y="-114"/>
      <point x="186" y="-121"/>
      <point x="222" y="-121" type="curve" smooth="yes"/>
      <point x="258" y="-121"/>
      <point x="288" y="-114"/>
      <point x="315" y="-99" type="curve"/>
      <point x="315" y="30" type="line"/>
      <point x="244" y="91" type="line"/>
      <point x="235" y="91"/>
      <point x="226" y="90"/>
      <point x="216" y="90" type="curve" smooth="yes"/>
      <point x="149" y="91"/>
      <point x="91" y="111"/>
      <point x="55" y="143" type="curve"/>
      <point x="55" y="402" type="line"/>
      <point x="73" y="418"/>
      <point x="98" y="431"/>
      <point x="127" y="441" type="curve"/>
      <point x="62" y="494" type="line"/>
      <point x="62" y="680" type="line"/>
      <point x="110" y="714"/>
      <point x="166" y="727"/>
      <point x="222" y="727" type="curve" smooth="yes"/>
      <point x="276" y="727"/>
      <point x="333" y="715"/>
      <point x="382" y="680" type="curve"/>
      <point x="382" y="506" type="line"/>
      <point x="315" y="506" type="line"/>
      <point x="315" y="644" type="line"/>
      <point x="289" y="659"/>
      <point x="259" y="666"/>
      <point x="222" y="666" type="curve" smooth="yes"/>
      <point x="187" y="666"/>
      <point x="157" y="659"/>
      <point x="130" y="644" type="curve"/>
      <point x="130" y="515" type="line"/>
      <point x="201" y="453" type="line"/>
      <point x="210" y="454"/>
      <point x="219" y="454"/>
      <point x="228" y="454" type="curve" smooth="yes"/>
      <point x="296" y="454"/>
      <point x="353" y="434"/>
      <point x="390" y="402" type="curve"/>
    </contour>
    <contour>
      <point x="324" y="173" type="curve"/>
      <point x="324" y="372" type="line"/>
      <point x="302" y="388"/>
      <point x="264" y="398"/>
      <point x="222" y="398" type="curve" smooth="yes"/>
      <point x="181" y="398"/>
      <point x="143" y="388"/>
      <point x="121" y="372" type="curve"/>
      <point x="121" y="173" type="line"/>
      <point x="143" y="157"/>
      <point x="181" y="147"/>
      <point x="222" y="147" type="curve" smooth="yes"/>
      <point x="264" y="147"/>
      <point x="302" y="157"/>
    </contour>
  </outline>
</glyph>
<glyph name="dieresis" format="1">
  <advance width="325"/>
  <unicode hex="00A8"/>
  <outline>
    <contour>
      <point x="267" y="535" type="line"/>
      <point x="199" y="535" type="line"/>
      <point x="199" y="645" type="line"/>
      <point x="267" y="645" type="line"/>
    </contour>
    <contour>
      <point x="126" y="535" type="line"/>
      <point x="57" y="535" type="line"/>
      <point x="57" y="645" type="line"/>
      <point x="126" y="645" type="line"/>
    </contour>
  </outline>
</glyph>
<glyph name="copyright" format="1">
  <advance width="585"/>
  <unicode hex="00A9"/>
  <outline>
    <contour>
      <point x="530" y="71" type="line"/>
      <point x="466" y="17"/>
      <point x="383" y="-7"/>
      <point x="292" y="-7" type="curve" smooth="yes"/>
      <point x="200" y="-7"/>
      <point x="118" y="17"/>
      <point x="55" y="71" type="curve"/>
      <point x="55" y="649" type="line"/>
      <point x="118" y="703"/>
      <point x="200" y="727"/>
      <point x="292" y="727" type="curve" smooth="yes"/>
      <point x="383" y="727"/>
      <point x="466" y="703"/>
      <point x="530" y="649" type="curve"/>
    </contour>
    <contour>
      <point x="473" y="100" type="curve"/>
      <point x="473" y="620" type="line"/>
      <point x="423" y="656"/>
      <point x="362" y="674"/>
      <point x="292" y="674" type="curve" smooth="yes"/>
      <point x="224" y="674"/>
      <point x="162" y="657"/>
      <point x="112" y="620" type="curve"/>
      <point x="112" y="100" type="line"/>
      <point x="162" y="63"/>
      <point x="224" y="46"/>
      <point x="292" y="46" type="curve" smooth="yes"/>
      <point x="362" y="46"/>
      <point x="423" y="64"/>
    </contour>
    <contour>
      <point x="404" y="151" type="line"/>
      <point x="370" y="123"/>
      <point x="329" y="112"/>
      <point x="291" y="112" type="curve" smooth="yes"/>
      <point x="253" y="112"/>
      <point x="213" y="122"/>
      <point x="177" y="151" type="curve"/>
      <point x="177" y="571" type="line"/>
      <point x="212" y="599"/>
      <point x="252" y="610"/>
      <point x="291" y="610" type="curve" smooth="yes"/>
      <point x="328" y="610"/>
      <point x="369" y="600"/>
      <point x="404" y="571" type="curve"/>
      <point x="404" y="443" type="line"/>
      <point x="352" y="443" type="line"/>
      <point x="352" y="545" type="line"/>
      <point x="334" y="556"/>
      <point x="313" y="562"/>
      <point x="291" y="562" type="curve" smooth="yes"/>
      <point x="269" y="562"/>
      <point x="248" y="557"/>
      <point x="229" y="545" type="curve"/>
      <point x="229" y="178" type="line"/>
      <point x="247" y="166"/>
      <point x="268" y="160"/>
      <point x="291" y="160" type="curve" smooth="yes"/>
      <point x="313" y="160"/>
      <point x="334" y="165"/>
      <point x="352" y="178" type="curve"/>
      <point x="352" y="279" type="line"/>
      <point x="404" y="279" type="line"/>
    </contour>
  </outline>
</glyph>
<glyph name="ordfeminine" format="1">
  <advance width="342"/>
  <unicode hex="00AA"/>
  <outline>
    <contour>
      <point x="285" y="344" type="line"/>
      <point x="254" y="320"/>
      <point x="219" y="308"/>
      <point x="171" y="308" type="curve" smooth="yes"/>
      <point x="125" y="308"/>
      <point x="89" y="319"/>
      <point x="57" y="344" type="curve"/>
      <point x="57" y="523" type="line"/>
      <point x="83" y="545"/>
      <point x="119" y="558"/>
      <point x="162" y="558" type="curve" smooth="yes"/>
      <point x="186" y="558"/>
      <point x="207" y="554"/>
      <point x="227" y="546" type="curve"/>
      <point x="227" y="662" type="line"/>
      <point x="212" y="672"/>
      <point x="196" y="676"/>
      <point x="172" y="676" type="curve" smooth="yes"/>
      <point x="150" y="676"/>
      <point x="135" y="673"/>
      <point x="119" y="664" type="curve"/>
      <point x="119" y="596" type="line"/>
      <point x="60" y="596" type="line"/>
      <point x="60" y="694" type="line"/>
      <point x="91" y="718"/>
      <point x="131" y="727"/>
      <point x="172" y="727" type="curve" smooth="yes"/>
      <point x="214" y="727"/>
      <point x="253" y="717"/>
      <point x="285" y="691" type="curve"/>
    </contour>
    <contour>
      <point x="227" y="373" type="curve"/>
      <point x="227" y="495" type="line"/>
      <point x="215" y="501"/>
      <point x="194" y="507"/>
      <point x="171" y="507" type="curve" smooth="yes"/>
      <point x="147" y="508"/>
      <point x="132" y="504"/>
      <point x="115" y="493" type="curve"/>
      <point x="115" y="373" type="line"/>
      <point x="128" y="365"/>
      <point x="147" y="360"/>
      <point x="171" y="360" type="curve" smooth="yes"/>
      <point x="195" y="360"/>
      <point x="213" y="364"/>
    </contour>
  </outline>
</glyph>
<glyph name="guillemotleft" format="1">
  <advance width="394"/>
  <unicode hex="00AB"/>
  <outline>
    <contour>
      <point x="355" y="30" type="line"/>
      <point x="199" y="208" type="line"/>
      <point x="199" y="273" type="line"/>
      <point x="355" y="450" type="line"/>
      <point x="355" y="356" type="line"/>
      <point x="250" y="240" type="line"/>
      <point x="355" y="125" type="line"/>
    </contour>
    <contour>
      <point x="184" y="30" type="line"/>
      <point x="29" y="208" type="line"/>
      <point x="29" y="273" type="line"/>
      <point x="184" y="450" type="line"/>
      <point x="184" y="356" type="line"/>
      <point x="79" y="240" type="line"/>
      <point x="184" y="125" type="line"/>
    </contour>
  </outline>
</glyph>
<glyph name="macron" format="1">
  <advance width="325"/>
  <unicode hex="00AF"/>
  <unicode hex="02C9"/>
  <outline>
    <contour>
      <point x="271" y="540" type="line"/>
      <point x="54" y="540" type="line"/>
      <point x="54" y="603" type="line"/>
      <point x="271" y="603" type="line"/>
    </contour>
  </outline>
</glyph>
<glyph name="degree" format="1">
  <advance width="349"/>
  <unicode hex="00B0"/>
  <outline>
    <contour>
      <point x="301" y="369" type="line"/>
      <point x="271" y="339"/>
      <point x="225" y="321"/>
      <point x="175" y="321" type="curve" smooth="yes"/>
      <point x="124" y="321"/>
      <point x="78" y="339"/>
      <point x="49" y="369" type="curve"/>
      <point x="49" y="679" type="line"/>
      <point x="78" y="709"/>
      <point x="124" y="727"/>
      <point x="175" y="727" type="curve" smooth="yes"/>
      <point x="225" y="727"/>
      <point x="271" y="709"/>
      <point x="301" y="679" type="curve"/>
    </contour>
    <contour>
      <point x="240" y="396" type="curve"/>
      <point x="240" y="652" type="line"/>
      <point x="222" y="667"/>
      <point x="201" y="674"/>
      <point x="175" y="674" type="curve" smooth="yes"/>
      <point x="148" y="674"/>
      <point x="127" y="667"/>
      <point x="109" y="652" type="curve"/>
      <point x="109" y="396" type="line"/>
      <point x="127" y="381"/>
      <point x="148" y="374"/>
      <point x="175" y="374" type="curve" smooth="yes"/>
      <point x="201" y="374"/>
      <point x="222" y="381"/>
    </contour>
  </outline>
</glyph>
<glyph name="acute" format="1">
  <advance width="325"/>
  <unicode hex="00B4"/>
  <outline>
    <contour>
      <point x="240" y="672" type="line"/>
      <point x="157" y="535" type="line"/>
      <point x="85" y="535" type="line"/>
      <point x="161" y="672" type="line"/>
    </contour>
  </outline>
</glyph>
<glyph name="paragraph" format="1">
  <advance width="469"/>
  <unicode hex="00B6"/>
  <outline>
    <contour>
      <point x="407" y="0" type="line"/>
      <point x="344" y="0" type="line"/>
      <point x="344" y="662" type="line"/>
      <point x="293" y="662" type="line"/>
      <point x="293" y="0" type="line"/>
      <point x="230" y="0" type="line"/>
      <point x="230" y="299" type="line"/>
      <point x="224" y="299" type="line" smooth="yes"/>
      <point x="129" y="299"/>
      <point x="81" y="324"/>
      <point x="38" y="377" type="curve"/>
      <point x="38" y="642" type="line"/>
      <point x="81" y="696"/>
      <point x="130" y="720"/>
      <point x="224" y="720" type="curve" smooth="yes"/>
      <point x="407" y="720" type="line"/>
    </contour>
    <contour>
      <point x="230" y="357" type="line"/>
      <point x="230" y="662" type="line"/>
      <point x="222" y="662" type="line" smooth="yes"/>
      <point x="161" y="662"/>
      <point x="129" y="648"/>
      <point x="103" y="618" type="curve"/>
      <point x="103" y="401" type="line"/>
      <point x="130" y="370"/>
      <point x="163" y="357"/>
      <point x="222" y="357" type="curve" smooth="yes"/>
    </contour>
  </outline>
</glyph>
<glyph name="periodcentered" format="1">
  <advance width="165"/>
  <unicode hex="00B7"/>
  <unicode hex="2219"/>
  <outline>
    <contour>
      <point x="118" y="241" type="line"/>
      <point x="47" y="241" type="line"/>
      <point x="47" y="351" type="line"/>
      <point x="118" y="351" type="line"/>
    </contour>
  </outline>
</glyph>
<glyph name="cedilla" format="1">
  <advance width="325"/>
  <unicode hex="00B8"/>
  <outline>
    <contour>
      <point x="194" y="-81" type="line"/>
      <point x="170" y="-114"/>
      <point x="132" y="-125"/>
      <point x="92" y="-125" type="curve" smooth="yes"/>
      <point x="81" y="-125" type="line"/>
      <point x="81" y="-67" type="line"/>
      <point x="88" y="-67" type="line" smooth="yes"/>
      <point x="107" y="-67"/>
      <point x="124" y="-63"/>
      <point x="134" y="-51" type="curve"/>
      <point x="134" y="10" type="line"/>
      <point x="194" y="10" type="line"/>
    </contour>
  </outline>
</glyph>
<glyph name="ordmasculine" format="1">
  <advance width="342"/>
  <unicode hex="00BA"/>
  <outline>
    <contour>
      <point x="291" y="353" type="line"/>
      <point x="265" y="327"/>
      <point x="224" y="308"/>
      <point x="171" y="308" type="curve" smooth="yes"/>
      <point x="120" y="308"/>
      <point x="78" y="326"/>
      <point x="51" y="353" type="curve"/>
      <point x="51" y="683" type="line"/>
      <point x="77" y="710"/>
      <point x="119" y="727"/>
      <point x="171" y="727" type="curve" smooth="yes"/>
      <point x="223" y="727"/>
      <point x="264" y="710"/>
      <point x="291" y="683" type="curve"/>
    </contour>
    <contour>
      <point x="232" y="380" type="curve"/>
      <point x="232" y="656" type="line"/>
      <point x="219" y="667"/>
      <point x="198" y="675"/>
      <point x="171" y="675" type="curve" smooth="yes"/>
      <point x="146" y="675"/>
      <point x="125" y="667"/>
      <point x="111" y="656" type="curve"/>
      <point x="111" y="380" type="line"/>
      <point x="124" y="369"/>
      <point x="145" y="361"/>
      <point x="171" y="361" type="curve" smooth="yes"/>
      <point x="197" y="361"/>
      <point x="218" y="369"/>
    </contour>
  </outline>
</glyph>
<glyph name="guillemotright" format="1">
  <advance width="394"/>
  <unicode hex="00BB"/>
  <outline>
    <contour>
      <point x="365" y="208" type="line"/>
      <point x="209" y="30" type="line"/>
      <point x="209" y="125" type="line"/>
      <point x="314" y="240" type="line"/>
      <point x="209" y="356" type="line"/>
      <point x="209" y="450" type="line"/>
      <point x="365" y="273" type="line"/>
    </contour>
    <contour>
      <point x="194" y="208" type="line"/>
      <point x="39" y="30" type="line"/>
      <point x="39" y="125" type="line"/>
      <point x="144" y="240" type="line"/>
      <point x="39" y="356" type="line"/>
      <point x="39" y="450" type="line"/>
      <point x="194" y="273" type="line"/>
    </contour>
  </outline>
</glyph>
<glyph name="questiondown" format="1">
  <advance width="389"/>
  <unicode hex="00BF"/>
  <outline>
    <contour>
      <point x="229" y="610" type="line"/>
      <point x="159" y="610" type="line"/>
      <point x="159" y="720" type="line"/>
      <point x="229" y="720" type="line"/>
    </contour>
    <contour>
      <point x="355" y="47" type="line"/>
      <point x="306" y="7"/>
      <point x="249" y="-7"/>
      <point x="195" y="-7" type="curve" smooth="yes"/>
      <point x="139" y="-7"/>
      <point x="83" y="8"/>
      <point x="35" y="47" type="curve"/>
      <point x="35" y="265" type="line"/>
      <point x="160" y="423" type="line"/>
      <point x="160" y="545" type="line"/>
      <point x="227" y="545" type="line"/>
      <point x="227" y="413" type="line"/>
      <point x="102" y="256" type="line"/>
      <point x="102" y="81" type="line"/>
      <point x="129" y="62"/>
      <point x="159" y="53"/>
      <point x="195" y="53" type="curve" smooth="yes"/>
      <point x="231" y="53"/>
      <point x="262" y="62"/>
      <point x="287" y="81" type="curve"/>
      <point x="287" y="244" type="line"/>
      <point x="355" y="244" type="line"/>
    </contour>
  </outline>
</glyph>
<glyph name="Aring" format="1">
  <advance width="450"/>
  <unicode hex="00C5"/>
  <outline>
    <contour>
      <point x="392" y="0" type="line"/>
      <point x="325" y="0" type="line"/>
      <point x="325" y="309" type="line"/>
      <point x="125" y="309" type="line"/>
      <point x="125" y="0" type="line"/>
      <point x="57" y="0" type="line"/>
      <point x="57" y="663" type="line"/>
      <point x="99" y="705"/>
      <point x="162" y="727"/>
      <point x="225" y="727" type="curve" smooth="yes"/>
      <point x="288" y="727"/>
      <point x="351" y="705"/>
      <point x="392" y="663" type="curve"/>
    </contour>
    <contour>
      <point x="325" y="373" type="line"/>
      <point x="325" y="631" type="line"/>
      <point x="298" y="654"/>
      <point x="263" y="666"/>
      <point x="225" y="666" type="curve" smooth="yes"/>
      <point x="187" y="666"/>
      <point x="152" y="654"/>
      <point x="125" y="631" type="curve"/>
      <point x="125" y="373" type="line"/>
    </contour>
    <contour>
      <point x="329" y="791" type="line"/>
      <point x="303" y="768"/>
      <point x="265" y="758"/>
      <point x="225" y="758" type="curve" smooth="yes"/>
      <point x="186" y="758"/>
      <point x="148" y="768"/>
      <point x="121" y="791" type="curve"/>
      <point x="121" y="865" type="line"/>
      <point x="148" y="887"/>
      <point x="186" y="898"/>
      <point x="225" y="898" type="curve" smooth="yes"/>
      <point x="265" y="898"/>
      <point x="303" y="887"/>
      <point x="329" y="865" type="curve"/>
    </contour>
    <contour>
      <point x="281" y="809" type="curve"/>
      <point x="281" y="846" type="line"/>
      <point x="266" y="855"/>
      <point x="246" y="858"/>
      <point x="225" y="858" type="curve" smooth="yes"/>
      <point x="204" y="858"/>
      <point x="184" y="855"/>
      <point x="170" y="846" type="curve"/>
      <point x="170" y="809" type="line"/>
      <point x="184" y="801"/>
      <point x="204" y="797"/>
      <point x="225" y="797" type="curve" smooth="yes"/>
      <point x="246" y="797"/>
      <point x="266" y="801"/>
    </contour>
  </outline>
</glyph>
<glyph name="AE" format="1">
  <advance width="719"/>
  <unicode hex="00C6"/>
  <outline>
    <contour>
      <point x="665" y="44" type="line"/>
      <point x="612" y="8"/>
      <point x="552" y="-7"/>
      <point x="492" y="-7" type="curve" smooth="yes"/>
      <point x="431" y="-7"/>
      <point x="370" y="13"/>
      <point x="325" y="48" type="curve"/>
      <point x="325" y="309" type="line"/>
      <point x="125" y="309" type="line"/>
      <point x="125" y="0" type="line"/>
      <point x="57" y="0" type="line"/>
      <point x="57" y="663" type="line"/>
      <point x="99" y="705"/>
      <point x="162" y="727"/>
      <point x="225" y="727" type="curve" smooth="yes"/>
      <point x="272" y="727"/>
      <point x="318" y="715"/>
      <point x="356" y="691" type="curve"/>
      <point x="392" y="712"/>
      <point x="442" y="727"/>
      <point x="492" y="727" type="curve" smooth="yes"/>
      <point x="551" y="727"/>
      <point x="611" y="713"/>
      <point x="665" y="676" type="curve"/>
      <point x="665" y="476" type="line"/>
      <point x="597" y="476" type="line"/>
      <point x="597" y="638" type="line"/>
      <point x="566" y="656"/>
      <point x="533" y="666"/>
      <point x="492" y="666" type="curve" smooth="yes"/>
      <point x="452" y="666"/>
      <point x="420" y="654"/>
      <point x="392" y="637" type="curve"/>
      <point x="392" y="403" type="line"/>
      <point x="572" y="403" type="line"/>
      <point x="572" y="340" type="line"/>
      <point x="392" y="340" type="line"/>
      <point x="392" y="83" type="line"/>
      <point x="420" y="66"/>
      <point x="452" y="54"/>
      <point x="492" y="54" type="curve" smooth="yes"/>
      <point x="532" y="54"/>
      <point x="565" y="63"/>
      <point x="597" y="83" type="curve"/>
      <point x="597" y="244" type="line"/>
      <point x="665" y="244" type="line"/>
    </contour>
    <contour>
      <point x="325" y="372" type="line"/>
      <point x="325" y="631" type="line"/>
      <point x="298" y="654"/>
      <point x="263" y="666"/>
      <point x="225" y="666" type="curve" smooth="yes"/>
      <point x="187" y="666"/>
      <point x="152" y="654"/>
      <point x="125" y="631" type="curve"/>
      <point x="125" y="372" type="line"/>
    </contour>
  </outline>
</glyph>
<glyph name="Ccedilla" format="1">
  <advance width="465"/>
  <unicode hex="00C7"/>
  <outline>
    <contour>
      <point x="410" y="52" type="line"/>
      <point x="367" y="17"/>
      <point x="315" y="0"/>
      <point x="264" y="-5" type="curve"/>
      <point x="264" y="-81" type="line"/>
      <point x="240" y="-114"/>
      <point x="200" y="-125"/>
      <point x="160" y="-125" type="curve" smooth="yes"/>
      <point x="149" y="-125" type="line"/>
      <point x="149" y="-67" type="line"/>
      <point x="156" y="-67" type="line" smooth="yes"/>
      <point x="175" y="-67"/>
      <point x="192" y="-63"/>
      <point x="202" y="-51" type="curve"/>
      <point x="202" y="-6" type="line"/>
      <point x="152" y="-1"/>
      <point x="100" y="17"/>
      <point x="55" y="52" type="curve"/>
      <point x="55" y="668" type="line"/>
      <point x="107" y="710"/>
      <point x="171" y="727"/>
      <point x="232" y="727" type="curve" smooth="yes"/>
      <point x="291" y="727"/>
      <point x="356" y="711"/>
      <point x="410" y="668" type="curve"/>
      <point x="410" y="476" type="line"/>
      <point x="342" y="476" type="line"/>
      <point x="342" y="633" type="line"/>
      <point x="311" y="655"/>
      <point x="273" y="666"/>
      <point x="232" y="666" type="curve" smooth="yes"/>
      <point x="193" y="666"/>
      <point x="155" y="656"/>
      <point x="122" y="633" type="curve"/>
      <point x="122" y="87" type="line"/>
      <point x="153" y="65"/>
      <point x="192" y="54"/>
      <point x="232" y="54" type="curve" smooth="yes"/>
      <point x="272" y="54"/>
      <point x="310" y="64"/>
      <point x="342" y="87" type="curve"/>
      <point x="342" y="244" type="line"/>
      <point x="410" y="244" type="line"/>
    </contour>
  </outline>
</glyph>
<glyph name="Eth" format="1">
  <advance width="484"/>
  <unicode hex="00D0"/>
  <outline>
    <contour>
      <point x="429" y="88" type="line"/>
      <point x="388" y="36"/>
      <point x="322" y="0"/>
      <point x="223" y="0" type="curve" smooth="yes"/>
      <point x="72" y="0" type="line"/>
      <point x="72" y="339" type="line"/>
      <point x="25" y="339" type="line"/>
      <point x="25" y="403" type="line"/>
      <point x="72" y="403" type="line"/>
      <point x="72" y="720" type="line"/>
      <point x="223" y="720" type="line" smooth="yes"/>
      <point x="320" y="720"/>
      <point x="386" y="686"/>
      <point x="429" y="632" type="curve"/>
    </contour>
    <contour>
      <point x="361" y="117" type="curve"/>
      <point x="361" y="604" type="line"/>
      <point x="334" y="635"/>
      <point x="285" y="658"/>
      <point x="222" y="658" type="curve" smooth="yes"/>
      <point x="140" y="658" type="line"/>
      <point x="140" y="403" type="line"/>
      <point x="212" y="403" type="line"/>
      <point x="212" y="339" type="line"/>
      <point x="140" y="339" type="line"/>
      <point x="140" y="62" type="line"/>
      <point x="222" y="62" type="line" smooth="yes"/>
      <point x="284" y="62"/>
      <point x="334" y="84"/>
    </contour>
  </outline>
</glyph>
<glyph name="Oslash" format="1">
  <advance width="485"/>
  <unicode hex="00D8"/>
  <outline>
    <contour>
      <point x="430" y="60" type="line"/>
      <point x="377" y="14"/>
      <point x="314" y="-7"/>
      <point x="242" y="-7" type="curve" smooth="yes"/>
      <point x="217" y="-7"/>
      <point x="193" y="-4"/>
      <point x="169" y="1" type="curve"/>
      <point x="151" y="-60" type="line"/>
      <point x="84" y="-60" type="line"/>
      <point x="109" y="23" type="line"/>
      <point x="90" y="33"/>
      <point x="72" y="45"/>
      <point x="55" y="60" type="curve"/>
      <point x="55" y="661" type="line"/>
      <point x="108" y="706"/>
      <point x="170" y="727"/>
      <point x="242" y="727" type="curve" smooth="yes"/>
      <point x="267" y="727"/>
      <point x="291" y="725"/>
      <point x="313" y="719" type="curve"/>
      <point x="331" y="780" type="line"/>
      <point x="398" y="780" type="line"/>
      <point x="374" y="698" type="line"/>
      <point x="394" y="688"/>
      <point x="412" y="676"/>
      <point x="430" y="661" type="curve"/>
    </contour>
    <contour>
      <point x="362" y="93" type="curve"/>
      <point x="362" y="627" type="line"/>
      <point x="360" y="629"/>
      <point x="357" y="631"/>
      <point x="355" y="632" type="curve"/>
      <point x="187" y="61" type="line"/>
      <point x="204" y="57"/>
      <point x="222" y="54"/>
      <point x="242" y="54" type="curve" smooth="yes"/>
      <point x="290" y="54"/>
      <point x="330" y="68"/>
    </contour>
    <contour>
      <point x="296" y="659" type="line"/>
      <point x="279" y="664"/>
      <point x="261" y="666"/>
      <point x="242" y="666" type="curve" smooth="yes"/>
      <point x="195" y="666"/>
      <point x="155" y="652"/>
      <point x="122" y="627" type="curve"/>
      <point x="122" y="93" type="line"/>
      <point x="124" y="92"/>
      <point x="126" y="90"/>
      <point x="128" y="89" type="curve"/>
    </contour>
  </outline>
</glyph>
<glyph name="Thorn" format="1">
  <advance width="422"/>
  <unicode hex="00DE"/>
  <outline>
    <contour>
      <point x="384" y="233" type="line"/>
      <point x="341" y="180"/>
      <point x="292" y="155"/>
      <point x="198" y="155" type="curve" smooth="yes"/>
      <point x="130" y="155" type="line"/>
      <point x="130" y="0" type="line"/>
      <point x="62" y="0" type="line"/>
      <point x="62" y="720" type="line"/>
      <point x="130" y="720" type="line"/>
      <point x="130" y="585" type="line"/>
      <point x="198" y="585" type="line" smooth="yes"/>
      <point x="292" y="585"/>
      <point x="341" y="561"/>
      <point x="384" y="507" type="curve"/>
    </contour>
    <contour>
      <point x="316" y="262" type="curve"/>
      <point x="316" y="479" type="line"/>
      <point x="291" y="509"/>
      <point x="258" y="523"/>
      <point x="197" y="523" type="curve" smooth="yes"/>
      <point x="130" y="523" type="line"/>
      <point x="130" y="217" type="line"/>
      <point x="197" y="217" type="line" smooth="yes"/>
      <point x="257" y="217"/>
      <point x="289" y="231"/>
    </contour>
  </outline>
</glyph>
<glyph name="germandbls" format="1">
  <advance width="352"/>
  <unicode hex="00DF"/>
  <outline>
    <contour>
      <point x="314" y="51" type="line"/>
      <point x="283" y="14"/>
      <point x="234" y="-1"/>
      <point x="171" y="-2" type="curve"/>
      <point x="171" y="56" type="line"/>
      <point x="198" y="56"/>
      <point x="232" y="63"/>
      <point x="249" y="80" type="curve"/>
      <point x="249" y="289" type="line"/>
      <point x="232" y="320"/>
      <point x="193" y="343"/>
      <point x="142" y="343" type="curve" smooth="yes"/>
      <point x="116" y="343" type="line"/>
      <point x="116" y="0" type="line"/>
      <point x="51" y="0" type="line"/>
      <point x="51" y="682" type="line"/>
      <point x="78" y="708"/>
      <point x="123" y="725"/>
      <point x="179" y="725" type="curve" smooth="yes"/>
      <point x="233" y="725"/>
      <point x="278" y="708"/>
      <point x="306" y="682" type="curve"/>
      <point x="306" y="430" type="line"/>
      <point x="287" y="405"/>
      <point x="258" y="383"/>
      <point x="221" y="371" type="curve"/>
      <point x="260" y="360"/>
      <point x="289" y="343"/>
      <point x="314" y="312" type="curve"/>
    </contour>
    <contour>
      <point x="241" y="450" type="curve"/>
      <point x="241" y="652" type="line"/>
      <point x="227" y="661"/>
      <point x="208" y="668"/>
      <point x="179" y="668" type="curve" smooth="yes"/>
      <point x="150" y="668"/>
      <point x="131" y="662"/>
      <point x="116" y="652" type="curve"/>
      <point x="116" y="399" type="line"/>
      <point x="142" y="399" type="line" smooth="yes"/>
      <point x="184" y="399"/>
      <point x="220" y="418"/>
    </contour>
  </outline>
</glyph>
<glyph name="ae" format="1">
  <advance width="531"/>
  <unicode hex="00E6"/>
  <outline>
    <contour>
      <point x="488" y="37" type="line"/>
      <point x="452" y="6"/>
      <point x="409" y="-7"/>
      <point x="360" y="-7" type="curve" smooth="yes"/>
      <point x="326" y="-7"/>
      <point x="295" y="1"/>
      <point x="267" y="16" type="curve"/>
      <point x="240" y="1"/>
      <point x="209" y="-7"/>
      <point x="169" y="-7" type="curve" smooth="yes"/>
      <point x="115" y="-7"/>
      <point x="77" y="4"/>
      <point x="41" y="34" type="curve"/>
      <point x="41" y="262" type="line"/>
      <point x="70" y="288"/>
      <point x="110" y="302"/>
      <point x="158" y="302" type="curve" smooth="yes"/>
      <point x="187" y="302"/>
      <point x="209" y="298"/>
      <point x="233" y="289" type="curve"/>
      <point x="233" y="415" type="line"/>
      <point x="215" y="427"/>
      <point x="198" y="431"/>
      <point x="170" y="431" type="curve" smooth="yes"/>
      <point x="144" y="431"/>
      <point x="128" y="428"/>
      <point x="109" y="418" type="curve"/>
      <point x="109" y="345" type="line"/>
      <point x="44" y="345" type="line"/>
      <point x="44" y="450" type="line"/>
      <point x="79" y="477"/>
      <point x="122" y="487"/>
      <point x="170" y="487" type="curve" smooth="yes"/>
      <point x="205" y="487"/>
      <point x="238" y="479"/>
      <point x="267" y="463" type="curve"/>
      <point x="293" y="478"/>
      <point x="324" y="487"/>
      <point x="360" y="487" type="curve" smooth="yes"/>
      <point x="410" y="487"/>
      <point x="453" y="472"/>
      <point x="487" y="440" type="curve"/>
      <point x="487" y="219" type="line"/>
      <point x="296" y="219" type="line"/>
      <point x="296" y="68" type="line"/>
      <point x="314" y="55"/>
      <point x="336" y="50"/>
      <point x="360" y="50" type="curve" smooth="yes"/>
      <point x="384" y="50"/>
      <point x="404" y="54"/>
      <point x="423" y="68" type="curve"/>
      <point x="423" y="165" type="line"/>
      <point x="488" y="165" type="line"/>
    </contour>
    <contour>
      <point x="423" y="274" type="line"/>
      <point x="423" y="410" type="line"/>
      <point x="407" y="423"/>
      <point x="387" y="430"/>
      <point x="360" y="430" type="curve" smooth="yes"/>
      <point x="333" y="430"/>
      <point x="314" y="424"/>
      <point x="296" y="410" type="curve"/>
      <point x="296" y="274" type="line"/>
    </contour>
    <contour>
      <point x="233" y="65" type="curve"/>
      <point x="233" y="232" type="line"/>
      <point x="218" y="240"/>
      <point x="194" y="247"/>
      <point x="169" y="247" type="curve" smooth="yes"/>
      <point x="143" y="248"/>
      <point x="123" y="243"/>
      <point x="104" y="230" type="curve"/>
      <point x="104" y="65" type="line"/>
      <point x="119" y="54"/>
      <point x="138" y="49"/>
      <point x="169" y="49" type="curve" smooth="yes"/>
      <point x="198" y="49"/>
      <point x="217" y="54"/>
    </contour>
  </outline>
</glyph>
<glyph name="ccedilla" format="1">
  <advance width="350"/>
  <unicode hex="00E7"/>
  <outline>
    <contour>
      <point x="309" y="37" type="line"/>
      <point x="281" y="13"/>
      <point x="245" y="0"/>
      <point x="207" y="-5" type="curve"/>
      <point x="207" y="-81" type="line"/>
      <point x="183" y="-114"/>
      <point x="145" y="-125"/>
      <point x="105" y="-125" type="curve" smooth="yes"/>
      <point x="94" y="-125" type="line"/>
      <point x="94" y="-67" type="line"/>
      <point x="101" y="-67" type="line" smooth="yes"/>
      <point x="120" y="-67"/>
      <point x="137" y="-63"/>
      <point x="147" y="-51" type="curve"/>
      <point x="147" y="-5" type="line"/>
      <point x="110" y="-1"/>
      <point x="72" y="11"/>
      <point x="44" y="37" type="curve"/>
      <point x="44" y="443" type="line"/>
      <point x="79" y="474"/>
      <point x="127" y="487"/>
      <point x="176" y="487" type="curve" smooth="yes"/>
      <point x="223" y="487"/>
      <point x="272" y="475"/>
      <point x="309" y="443" type="curve"/>
      <point x="309" y="308" type="line"/>
      <point x="244" y="308" type="line"/>
      <point x="244" y="411" type="line"/>
      <point x="226" y="424"/>
      <point x="203" y="429"/>
      <point x="176" y="429" type="curve" smooth="yes"/>
      <point x="150" y="429"/>
      <point x="127" y="425"/>
      <point x="109" y="411" type="curve"/>
      <point x="109" y="69" type="line"/>
      <point x="126" y="56"/>
      <point x="149" y="52"/>
      <point x="176" y="51" type="curve" smooth="yes"/>
      <point x="202" y="51"/>
      <point x="225" y="55"/>
      <point x="244" y="69" type="curve"/>
      <point x="244" y="173" type="line"/>
      <point x="309" y="173" type="line"/>
    </contour>
  </outline>
</glyph>
<glyph name="oslash" format="1">
  <advance width="362"/>
  <unicode hex="00F8"/>
  <outline>
    <contour>
      <point x="319" y="44" type="line"/>
      <point x="289" y="14"/>
      <point x="242" y="-7"/>
      <point x="181" y="-7" type="curve" smooth="yes"/>
      <point x="171" y="-7"/>
      <point x="161" y="-6"/>
      <point x="152" y="-5" type="curve"/>
      <point x="139" y="-60" type="line"/>
      <point x="77" y="-60" type="line"/>
      <point x="94" y="10" type="line"/>
      <point x="74" y="18"/>
      <point x="57" y="30"/>
      <point x="44" y="44" type="curve"/>
      <point x="44" y="436" type="line"/>
      <point x="73" y="466"/>
      <point x="121" y="487"/>
      <point x="181" y="487" type="curve" smooth="yes"/>
      <point x="191" y="487"/>
      <point x="201" y="486"/>
      <point x="211" y="485" type="curve"/>
      <point x="224" y="540" type="line"/>
      <point x="286" y="540" type="line"/>
      <point x="268" y="470" type="line"/>
      <point x="288" y="461"/>
      <point x="305" y="450"/>
      <point x="319" y="436" type="curve"/>
    </contour>
    <contour>
      <point x="254" y="76" type="curve"/>
      <point x="254" y="405" type="line"/>
      <point x="254" y="405"/>
      <point x="253" y="405"/>
      <point x="253" y="406" type="curve"/>
      <point x="166" y="52" type="line"/>
      <point x="171" y="51"/>
      <point x="176" y="51"/>
      <point x="181" y="51" type="curve" smooth="yes"/>
      <point x="213" y="51"/>
      <point x="237" y="61"/>
    </contour>
    <contour>
      <point x="197" y="428" type="line"/>
      <point x="192" y="429"/>
      <point x="186" y="429"/>
      <point x="181" y="429" type="curve" smooth="yes"/>
      <point x="150" y="429"/>
      <point x="125" y="419"/>
      <point x="109" y="405" type="curve"/>
      <point x="109" y="76" type="line"/>
      <point x="110" y="75" type="line"/>
    </contour>
  </outline>
</glyph>
<glyph name="thorn" format="1">
  <advance width="356"/>
  <unicode hex="00FE"/>
  <outline>
    <contour>
      <point x="322" y="43" type="line"/>
      <point x="291" y="10"/>
      <point x="246" y="-7"/>
      <point x="193" y="-7" type="curve" smooth="yes"/>
      <point x="162" y="-7"/>
      <point x="136" y="0"/>
      <point x="112" y="11" type="curve"/>
      <point x="112" y="-175" type="line"/>
      <point x="47" y="-175" type="line"/>
      <point x="47" y="720" type="line"/>
      <point x="112" y="720" type="line"/>
      <point x="112" y="469" type="line"/>
      <point x="136" y="481"/>
      <point x="162" y="487"/>
      <point x="193" y="487" type="curve" smooth="yes"/>
      <point x="246" y="487"/>
      <point x="291" y="470"/>
      <point x="322" y="437" type="curve"/>
    </contour>
    <contour>
      <point x="257" y="76" type="curve"/>
      <point x="257" y="405" type="line"/>
      <point x="241" y="419"/>
      <point x="217" y="429"/>
      <point x="185" y="429" type="curve" smooth="yes"/>
      <point x="152" y="429"/>
      <point x="129" y="420"/>
      <point x="112" y="407" type="curve"/>
      <point x="112" y="74" type="line"/>
      <point x="129" y="61"/>
      <point x="152" y="51"/>
      <point x="185" y="51" type="curve" smooth="yes"/>
      <point x="217" y="51"/>
      <point x="241" y="61"/>
    </contour>
  </outline>
</glyph>
<glyph name="Lslash" format="1">
  <advance width="395"/>
  <unicode hex="0141"/>
  <outline>
    <contour>
      <point x="365" y="0" type="line"/>
      <point x="72" y="0" type="line"/>
      <point x="72" y="309" type="line"/>
      <point x="25" y="285" type="line"/>
      <point x="25" y="354" type="line"/>
      <point x="72" y="378" type="line"/>
      <point x="72" y="720" type="line"/>
      <point x="139" y="720" type="line"/>
      <point x="139" y="411" type="line"/>
      <point x="232" y="458" type="line"/>
      <point x="232" y="389" type="line"/>
      <point x="139" y="342" type="line"/>
      <point x="139" y="61" type="line"/>
      <point x="365" y="61" type="line"/>
    </contour>
  </outline>
</glyph>
<glyph name="lslash" format="1">
  <advance width="192"/>
  <unicode hex="0142"/>
  <outline>
    <contour>
      <point x="172" y="362" type="line"/>
      <point x="129" y="340" type="line"/>
      <point x="129" y="0" type="line"/>
      <point x="64" y="0" type="line"/>
      <point x="64" y="307" type="line"/>
      <point x="20" y="285" type="line"/>
      <point x="20" y="354" type="line"/>
      <point x="64" y="376" type="line"/>
      <point x="64" y="720" type="line"/>
      <point x="129" y="720" type="line"/>
      <point x="129" y="408" type="line"/>
      <point x="172" y="430" type="line"/>
    </contour>
  </outline>
</glyph>
<glyph name="OE" format="1">
  <advance width="746"/>
  <unicode hex="0152"/>
  <outline>
    <contour>
      <point x="692" y="44" type="line"/>
      <point x="640" y="8"/>
      <point x="579" y="-7"/>
      <point x="520" y="-7" type="curve" smooth="yes"/>
      <point x="469" y="-7"/>
      <point x="420" y="8"/>
      <point x="383" y="28" type="curve"/>
      <point x="342" y="5"/>
      <point x="298" y="-7"/>
      <point x="237" y="-7" type="curve" smooth="yes"/>
      <point x="166" y="-7"/>
      <point x="109" y="12"/>
      <point x="55" y="54" type="curve"/>
      <point x="55" y="667" type="line"/>
      <point x="108" y="708"/>
      <point x="165" y="727"/>
      <point x="237" y="727" type="curve" smooth="yes"/>
      <point x="298" y="727"/>
      <point x="342" y="715"/>
      <point x="383" y="691" type="curve"/>
      <point x="419" y="712"/>
      <point x="469" y="727"/>
      <point x="520" y="727" type="curve" smooth="yes"/>
      <point x="579" y="727"/>
      <point x="639" y="713"/>
      <point x="692" y="676" type="curve"/>
      <point x="692" y="476" type="line"/>
      <point x="625" y="476" type="line"/>
      <point x="625" y="638" type="line"/>
      <point x="594" y="656"/>
      <point x="560" y="666"/>
      <point x="520" y="666" type="curve" smooth="yes"/>
      <point x="479" y="666"/>
      <point x="447" y="654"/>
      <point x="420" y="637" type="curve"/>
      <point x="420" y="403" type="line"/>
      <point x="600" y="403" type="line"/>
      <point x="600" y="340" type="line"/>
      <point x="420" y="340" type="line"/>
      <point x="420" y="83" type="line"/>
      <point x="447" y="66"/>
      <point x="479" y="54"/>
      <point x="520" y="54" type="curve" smooth="yes"/>
      <point x="559" y="54"/>
      <point x="592" y="63"/>
      <point x="625" y="83" type="curve"/>
      <point x="625" y="244" type="line"/>
      <point x="692" y="244" type="line"/>
    </contour>
    <contour>
      <point x="352" y="86" type="curve"/>
      <point x="352" y="634" type="line"/>
      <point x="321" y="654"/>
      <point x="286" y="666"/>
      <point x="237" y="666" type="curve" smooth="yes"/>
      <point x="190" y="666"/>
      <point x="155" y="653"/>
      <point x="122" y="631" type="curve"/>
      <point x="122" y="89" type="line"/>
      <point x="154" y="67"/>
      <point x="189" y="54"/>
      <point x="237" y="54" type="curve" smooth="yes"/>
      <point x="286" y="54"/>
      <point x="321" y="66"/>
    </contour>
  </outline>
</glyph>
<glyph name="oe" format="1">
  <advance width="542"/>
  <unicode hex="0153"/>
  <outline>
    <contour>
      <point x="499" y="37" type="line"/>
      <point x="463" y="6"/>
      <point x="420" y="-7"/>
      <point x="371" y="-7" type="curve" smooth="yes"/>
      <point x="336" y="-7"/>
      <point x="303" y="0"/>
      <point x="273" y="19" type="curve"/>
      <point x="248" y="3"/>
      <point x="217" y="-7"/>
      <point x="176" y="-7" type="curve" smooth="yes"/>
      <point x="117" y="-7"/>
      <point x="74" y="12"/>
      <point x="44" y="42" type="curve"/>
      <point x="44" y="438" type="line"/>
      <point x="73" y="467"/>
      <point x="116" y="487"/>
      <point x="176" y="487" type="curve" smooth="yes"/>
      <point x="217" y="487"/>
      <point x="249" y="477"/>
      <point x="275" y="461" type="curve"/>
      <point x="302" y="478"/>
      <point x="334" y="487"/>
      <point x="371" y="487" type="curve" smooth="yes"/>
      <point x="421" y="487"/>
      <point x="464" y="472"/>
      <point x="498" y="440" type="curve"/>
      <point x="498" y="219" type="line"/>
      <point x="307" y="219" type="line"/>
      <point x="307" y="68" type="line"/>
      <point x="325" y="55"/>
      <point x="347" y="50"/>
      <point x="371" y="50" type="curve" smooth="yes"/>
      <point x="395" y="50"/>
      <point x="415" y="54"/>
      <point x="434" y="68" type="curve"/>
      <point x="434" y="165" type="line"/>
      <point x="499" y="165" type="line"/>
    </contour>
    <contour>
      <point x="434" y="274" type="line"/>
      <point x="434" y="410" type="line"/>
      <point x="418" y="423"/>
      <point x="398" y="430"/>
      <point x="371" y="430" type="curve" smooth="yes"/>
      <point x="344" y="430"/>
      <point x="325" y="424"/>
      <point x="307" y="410" type="curve"/>
      <point x="307" y="274" type="line"/>
    </contour>
    <contour>
      <point x="244" y="73" type="curve"/>
      <point x="244" y="407" type="line"/>
      <point x="228" y="421"/>
      <point x="209" y="430"/>
      <point x="176" y="430" type="curve" smooth="yes"/>
      <point x="145" y="430"/>
      <point x="125" y="421"/>
      <point x="109" y="407" type="curve"/>
      <point x="109" y="73" type="line"/>
      <point x="124" y="60"/>
      <point x="143" y="50"/>
      <point x="176" y="50" type="curve" smooth="yes"/>
      <point x="208" y="50"/>
      <point x="227" y="59"/>
    </contour>
  </outline>
</glyph>
<glyph name="florin" format="1">
  <advance width="256"/>
  <unicode hex="0192"/>
  <outline>
    <contour>
      <point x="228" y="664" type="line"/>
      <point x="195" y="664" type="line" smooth="yes"/>
      <point x="175" y="664"/>
      <point x="153" y="656"/>
      <point x="140" y="641" type="curve"/>
      <point x="140" y="480" type="line"/>
      <point x="220" y="480" type="line"/>
      <point x="220" y="421" type="line"/>
      <point x="140" y="421" type="line"/>
      <point x="140" y="-122" type="line"/>
      <point x="113" y="-161"/>
      <point x="71" y="-180"/>
      <point x="24" y="-180" type="curve" smooth="yes"/>
      <point x="-12" y="-180" type="line"/>
      <point x="-12" y="-119" type="line"/>
      <point x="20" y="-119" type="line" smooth="yes"/>
      <point x="41" y="-119"/>
      <point x="62" y="-111"/>
      <point x="75" y="-96" type="curve"/>
      <point x="75" y="421" type="line"/>
      <point x="38" y="421" type="line"/>
      <point x="38" y="480" type="line"/>
      <point x="75" y="480" type="line"/>
      <point x="75" y="667" type="line"/>
      <point x="102" y="706"/>
      <point x="144" y="725"/>
      <point x="192" y="725" type="curve" smooth="yes"/>
      <point x="228" y="725" type="line"/>
    </contour>
  </outline>
</glyph>
<glyph name="circumflex" format="1">
  <advance width="325"/>
  <unicode hex="02C6"/>
  <outline>
    <contour>
      <point x="282" y="535" type="line"/>
      <point x="213" y="535" type="line"/>
      <point x="162" y="624" type="line"/>
      <point x="112" y="535" type="line"/>
      <point x="42" y="535" type="line"/>
      <point x="122" y="672" type="line"/>
      <point x="203" y="672" type="line"/>
    </contour>
  </outline>
</glyph>
<glyph name="caron" format="1">
  <advance width="325"/>
  <unicode hex="02C7"/>
  <outline>
    <contour>
      <point x="282" y="672" type="line"/>
      <point x="203" y="535" type="line"/>
      <point x="122" y="535" type="line"/>
      <point x="42" y="672" type="line"/>
      <point x="112" y="672" type="line"/>
      <point x="162" y="583" type="line"/>
      <point x="213" y="672" type="line"/>
    </contour>
  </outline>
</glyph>
<glyph name="breve" format="1">
  <advance width="325"/>
  <unicode hex="02D8"/>
  <outline>
    <contour>
      <point x="274" y="578" type="line"/>
      <point x="246" y="548"/>
      <point x="205" y="535"/>
      <point x="162" y="535" type="curve" smooth="yes"/>
      <point x="119" y="535"/>
      <point x="78" y="548"/>
      <point x="50" y="578" type="curve"/>
      <point x="50" y="672" type="line"/>
      <point x="112" y="672" type="line"/>
      <point x="112" y="602" type="line"/>
      <point x="125" y="592"/>
      <point x="141" y="587"/>
      <point x="162" y="587" type="curve" smooth="yes"/>
      <point x="183" y="587"/>
      <point x="199" y="592"/>
      <point x="213" y="602" type="curve"/>
      <point x="213" y="672" type="line"/>
      <point x="274" y="672" type="line"/>
    </contour>
  </outline>
</glyph>
<glyph name="dotaccent" format="1">
  <advance width="325"/>
  <unicode hex="02D9"/>
  <outline>
    <contour>
      <point x="197" y="535" type="line"/>
      <point x="128" y="535" type="line"/>
      <point x="128" y="645" type="line"/>
      <point x="197" y="645" type="line"/>
    </contour>
  </outline>
</glyph>
<glyph name="ring" format="1">
  <advance width="325"/>
  <unicode hex="02DA"/>
  <outline>
    <contour>
      <point x="266" y="568" type="line"/>
      <point x="240" y="545"/>
      <point x="202" y="535"/>
      <point x="162" y="535" type="curve" smooth="yes"/>
      <point x="123" y="535"/>
      <point x="85" y="545"/>
      <point x="58" y="568" type="curve"/>
      <point x="58" y="642" type="line"/>
      <point x="85" y="664"/>
      <point x="123" y="675"/>
      <point x="162" y="675" type="curve" smooth="yes"/>
      <point x="202" y="675"/>
      <point x="240" y="664"/>
      <point x="266" y="642" type="curve"/>
    </contour>
    <contour>
      <point x="218" y="586" type="curve"/>
      <point x="218" y="623" type="line"/>
      <point x="203" y="632"/>
      <point x="183" y="635"/>
      <point x="162" y="635" type="curve" smooth="yes"/>
      <point x="141" y="635"/>
      <point x="121" y="632"/>
      <point x="107" y="623" type="curve"/>
      <point x="107" y="586" type="line"/>
      <point x="121" y="578"/>
      <point x="141" y="574"/>
      <point x="162" y="574" type="curve" smooth="yes"/>
      <point x="183" y="574"/>
      <point x="203" y="578"/>
    </contour>
  </outline>
</glyph>
<glyph name="ogonek" format="1">
  <advance width="325"/>
  <unicode hex="02DB"/>
  <outline>
    <contour>
      <point x="244" y="-125" type="line"/>
      <point x="234" y="-125" type="line" smooth="yes"/>
      <point x="194" y="-125"/>
      <point x="156" y="-114"/>
      <point x="131" y="-81" type="curve"/>
      <point x="131" y="10" type="line"/>
      <point x="191" y="10" type="line"/>
      <point x="191" y="-51" type="line"/>
      <point x="202" y="-63"/>
      <point x="218" y="-67"/>
      <point x="237" y="-67" type="curve" smooth="yes"/>
      <point x="244" y="-67" type="line"/>
    </contour>
  </outline>
</glyph>
<glyph name="tilde" format="1">
  <advance width="325"/>
  <unicode hex="02DC"/>
  <outline>
    <contour>
      <point x="287" y="672" type="line"/>
      <point x="246" y="535" type="line"/>
      <point x="186" y="535" type="line"/>
      <point x="120" y="616" type="line"/>
      <point x="95" y="535" type="line"/>
      <point x="37" y="535" type="line"/>
      <point x="78" y="672" type="line"/>
      <point x="139" y="672" type="line"/>
      <point x="204" y="591" type="line"/>
      <point x="230" y="672" type="line"/>
    </contour>
  </outline>
</glyph>
<glyph name="hungarumlaut" format="1">
  <advance width="325"/>
  <unicode hex="02DD"/>
  <outline>
    <contour>
      <point x="305" y="672" type="line"/>
      <point x="222" y="535" type="line"/>
      <point x="150" y="535" type="line"/>
      <point x="226" y="672" type="line"/>
    </contour>
    <contour>
      <point x="174" y="672" type="line"/>
      <point x="91" y="535" type="line"/>
      <point x="19" y="535" type="line"/>
      <point x="95" y="672" type="line"/>
    </contour>
  </outline>
</glyph>
<glyph name="endash" format="1">
  <advance width="362"/>
  <unicode hex="2013"/>
  <outline>
    <contour>
      <point x="335" y="275" type="line"/>
      <point x="27" y="275" type="line"/>
      <point x="27" y="339" type="line"/>
      <point x="335" y="339" type="line"/>
    </contour>
  </outline>
</glyph>
<glyph name="emdash" format="1">
  <advance width="487"/>
  <unicode hex="2014"/>
  <outline>
    <contour>
      <point x="460" y="275" type="line"/>
      <point x="27" y="275" type="line"/>
      <point x="27" y="339" type="line"/>
      <point x="460" y="339" type="line"/>
    </contour>
  </outline>
</glyph>
<glyph name="quoteleft" format="1">
  <advance width="165"/>
  <unicode hex="2018"/>
  <unicode hex="02BB"/>
  <outline>
    <contour>
      <point x="131" y="480" type="line"/>
      <point x="62" y="480" type="line"/>
      <point x="33" y="720" type="line"/>
      <point x="102" y="720" type="line"/>
    </contour>
  </outline>
</glyph>
<glyph name="quoteright" format="1">
  <advance width="165"/>
  <unicode hex="2019"/>
  <unicode hex="02BC"/>
  <outline>
    <contour>
      <point x="132" y="720" type="line"/>
      <point x="102" y="480" type="line"/>
      <point x="33" y="480" type="line"/>
      <point x="63" y="720" type="line"/>
    </contour>
  </outline>
</glyph>
<glyph name="quotesinglbase" format="1">
  <advance width="165"/>
  <unicode hex="201A"/>
  <outline>
    <contour>
      <point x="125" y="130" type="line"/>
      <point x="95" y="-110" type="line"/>
      <point x="26" y="-110" type="line"/>
      <point x="56" y="130" type="line"/>
    </contour>
  </outline>
</glyph>
<glyph name="quotedblleft" format="1">
  <advance width="325"/>
  <unicode hex="201C"/>
  <outline>
    <contour>
      <point x="291" y="480" type="line"/>
      <point x="222" y="480" type="line"/>
      <point x="193" y="720" type="line"/>
      <point x="262" y="720" type="line"/>
    </contour>
    <contour>
      <point x="131" y="480" type="line"/>
      <point x="62" y="480" type="line"/>
      <point x="33" y="720" type="line"/>
      <point x="102" y="720" type="line"/>
    </contour>
  </outline>
</glyph>
<glyph name="quotedblright" format="1">
  <advance width="325"/>
  <unicode hex="201D"/>
  <outline>
    <contour>
      <point x="291" y="720" type="line"/>
      <point x="262" y="480" type="line"/>
      <point x="193" y="480" type="line"/>
      <point x="222" y="720" type="line"/>
    </contour>
    <contour>
      <point x="131" y="720" type="line"/>
      <point x="102" y="480" type="line"/>
      <point x="33" y="480" type="line"/>
      <point x="62" y="720" type="line"/>
    </contour>
  </outline>
</glyph>
<glyph name="quotedblbase" format="1">
  <advance width="325"/>
  <unicode hex="201E"/>
  <outline>
    <contour>
      <point x="284" y="130" type="line"/>
      <point x="255" y="-110" type="line"/>
      <point x="186" y="-110" type="line"/>
      <point x="215" y="130" type="line"/>
    </contour>
    <contour>
      <point x="124" y="130" type="line"/>
      <point x="95" y="-110" type="line"/>
      <point x="26" y="-110" type="line"/>
      <point x="55" y="130" type="line"/>
    </contour>
  </outline>
</glyph>
<glyph name="dagger" format="1">
  <advance width="320"/>
  <unicode hex="2020"/>
  <outline>
    <contour>
      <point x="297" y="419" type="line"/>
      <point x="193" y="419" type="line"/>
      <point x="193" y="0" type="line"/>
      <point x="127" y="0" type="line"/>
      <point x="127" y="419" type="line"/>
      <point x="22" y="419" type="line"/>
      <point x="22" y="480" type="line"/>
      <point x="127" y="480" type="line"/>
      <point x="127" y="720" type="line"/>
      <point x="193" y="720" type="line"/>
      <point x="193" y="480" type="line"/>
      <point x="297" y="480" type="line"/>
    </contour>
  </outline>
</glyph>
<glyph name="daggerdbl" format="1">
  <advance width="320"/>
  <unicode hex="2021"/>
  <outline>
    <contour>
      <point x="297" y="233" type="line"/>
      <point x="192" y="233" type="line"/>
      <point x="192" y="0" type="line"/>
      <point x="127" y="0" type="line"/>
      <point x="127" y="233" type="line"/>
      <point x="22" y="233" type="line"/>
      <point x="22" y="293" type="line"/>
      <point x="127" y="293" type="line"/>
      <point x="127" y="420" type="line"/>
      <point x="22" y="420" type="line"/>
      <point x="22" y="480" type="line"/>
      <point x="127" y="480" type="line"/>
      <point x="127" y="720" type="line"/>
      <point x="192" y="720" type="line"/>
      <point x="192" y="480" type="line"/>
      <point x="297" y="480" type="line"/>
      <point x="297" y="420" type="line"/>
      <point x="192" y="420" type="line"/>
      <point x="192" y="293" type="line"/>
      <point x="297" y="293" type="line"/>
    </contour>
  </outline>
</glyph>
<glyph name="bullet" format="1">
  <advance width="362"/>
  <unicode hex="2022"/>
  <outline>
    <contour>
      <point x="291" y="243" type="line"/>
      <point x="262" y="215"/>
      <point x="221" y="203"/>
      <point x="181" y="203" type="curve" smooth="yes"/>
      <point x="141" y="203"/>
      <point x="101" y="215"/>
      <point x="71" y="243" type="curve"/>
      <point x="71" y="504" type="line"/>
      <point x="101" y="532"/>
      <point x="141" y="544"/>
      <point x="181" y="544" type="curve" smooth="yes"/>
      <point x="221" y="544"/>
      <point x="262" y="532"/>
      <point x="291" y="504" type="curve"/>
    </contour>
  </outline>
</glyph>
<glyph name="ellipsis" format="1">
  <advance width="495"/>
  <unicode hex="2026"/>
  <outline>
    <contour>
      <point x="448" y="0" type="line"/>
      <point x="377" y="0" type="line"/>
      <point x="377" y="110" type="line"/>
      <point x="448" y="110" type="line"/>
    </contour>
    <contour>
      <point x="283" y="0" type="line"/>
      <point x="212" y="0" type="line"/>
      <point x="212" y="110" type="line"/>
      <point x="283" y="110" type="line"/>
    </contour>
    <contour>
      <point x="118" y="0" type="line"/>
      <point x="47" y="0" type="line"/>
      <point x="47" y="110" type="line"/>
      <point x="118" y="110" type="line"/>
    </contour>
  </outline>
</glyph>
<glyph name="perthousand" format="1">
  <advance width="1059"/>
  <unicode hex="2030"/>
  <outline>
    <contour>
      <point x="1011" y="46" type="line"/>
      <point x="982" y="12"/>
      <point x="936" y="-7"/>
      <point x="885" y="-7" type="curve" smooth="yes"/>
      <point x="834" y="-7"/>
      <point x="788" y="12"/>
      <point x="759" y="46" type="curve"/>
      <point x="759" y="347" type="line"/>
      <point x="788" y="380"/>
      <point x="834" y="400"/>
      <point x="885" y="400" type="curve" smooth="yes"/>
      <point x="936" y="400"/>
      <point x="982" y="380"/>
      <point x="1011" y="347" type="curve"/>
    </contour>
    <contour>
      <point x="701" y="46" type="line"/>
      <point x="671" y="12"/>
      <point x="625" y="-7"/>
      <point x="575" y="-7" type="curve" smooth="yes"/>
      <point x="524" y="-7"/>
      <point x="478" y="12"/>
      <point x="449" y="46" type="curve"/>
      <point x="449" y="347" type="line"/>
      <point x="478" y="380"/>
      <point x="524" y="400"/>
      <point x="575" y="400" type="curve" smooth="yes"/>
      <point x="625" y="400"/>
      <point x="671" y="380"/>
      <point x="701" y="347" type="curve"/>
    </contour>
    <contour>
      <point x="521" y="720" type="line"/>
      <point x="291" y="0" type="line"/>
      <point x="228" y="0" type="line"/>
      <point x="458" y="720" type="line"/>
    </contour>
    <contour>
      <point x="301" y="374" type="line"/>
      <point x="271" y="340"/>
      <point x="225" y="320"/>
      <point x="175" y="320" type="curve" smooth="yes"/>
      <point x="124" y="320"/>
      <point x="78" y="340"/>
      <point x="49" y="374" type="curve"/>
      <point x="49" y="674" type="line"/>
      <point x="78" y="708"/>
      <point x="124" y="727"/>
      <point x="175" y="727" type="curve" smooth="yes"/>
      <point x="225" y="727"/>
      <point x="271" y="708"/>
      <point x="301" y="674" type="curve"/>
    </contour>
    <contour>
      <point x="949" y="71" type="curve"/>
      <point x="949" y="321" type="line"/>
      <point x="932" y="338"/>
      <point x="912" y="345"/>
      <point x="885" y="345" type="curve" smooth="yes"/>
      <point x="858" y="345"/>
      <point x="838" y="338"/>
      <point x="821" y="321" type="curve"/>
      <point x="821" y="71" type="line"/>
      <point x="838" y="55"/>
      <point x="858" y="48"/>
      <point x="885" y="48" type="curve" smooth="yes"/>
      <point x="912" y="48"/>
      <point x="932" y="55"/>
    </contour>
    <contour>
      <point x="639" y="71" type="curve"/>
      <point x="639" y="321" type="line"/>
      <point x="622" y="338"/>
      <point x="602" y="345"/>
      <point x="575" y="345" type="curve" smooth="yes"/>
      <point x="548" y="345"/>
      <point x="528" y="338"/>
      <point x="510" y="321" type="curve"/>
      <point x="510" y="71" type="line"/>
      <point x="528" y="55"/>
      <point x="548" y="48"/>
      <point x="575" y="48" type="curve" smooth="yes"/>
      <point x="602" y="48"/>
      <point x="622" y="55"/>
    </contour>
    <contour>
      <point x="239" y="399" type="curve"/>
      <point x="239" y="649" type="line"/>
      <point x="222" y="665"/>
      <point x="202" y="672"/>
      <point x="175" y="672" type="curve" smooth="yes"/>
      <point x="148" y="672"/>
      <point x="128" y="665"/>
      <point x="110" y="649" type="curve"/>
      <point x="110" y="399" type="line"/>
      <point x="128" y="383"/>
      <point x="148" y="376"/>
      <point x="175" y="376" type="curve" smooth="yes"/>
      <point x="202" y="376"/>
      <point x="222" y="383"/>
    </contour>
  </outline>
</glyph>
<glyph name="guilsinglleft" format="1">
  <advance width="223"/>
  <unicode hex="2039"/>
  <outline>
    <contour>
      <point x="184" y="30" type="line"/>
      <point x="29" y="208" type="line"/>
      <point x="29" y="273" type="line"/>
      <point x="184" y="450" type="line"/>
      <point x="184" y="356" type="line"/>
      <point x="79" y="240" type="line"/>
      <point x="184" y="125" type="line"/>
    </contour>
  </outline>
</glyph>
<glyph name="guilsinglright" format="1">
  <advance width="223"/>
  <unicode hex="203A"/>
  <outline>
    <contour>
      <point x="194" y="208" type="line"/>
      <point x="39" y="30" type="line"/>
      <point x="39" y="125" type="line"/>
      <point x="144" y="240" type="line"/>
      <point x="39" y="356" type="line"/>
      <point x="39" y="450" type="line"/>
      <point x="194" y="273" type="line"/>
    </contour>
  </outline>
</glyph>
<glyph name="fraction" format="1">
  <advance width="300"/>
  <unicode hex="2044"/>
  <unicode hex="2215"/>
  <outline>
    <contour>
      <point x="288" y="720" type="line"/>
      <point x="80" y="0" type="line"/>
      <point x="12" y="0" type="line"/>
      <point x="220" y="720" type="line"/>
    </contour>
  </outline>
</glyph>
<glyph name="Euro" format="1">
  <advance width="455"/>
  <unicode hex="20AC"/>
  <outline>
    <contour>
      <point x="127" y="392" type="line"/>
      <point x="127" y="328" type="line"/>
      <point x="282" y="328" type="line"/>
      <point x="282" y="264" type="line"/>
      <point x="127" y="264" type="line"/>
      <point x="127" y="90" type="line"/>
      <point x="153" y="67"/>
      <point x="186" y="54"/>
      <point x="233" y="54" type="curve" smooth="yes"/>
      <point x="280" y="54"/>
      <point x="313" y="67"/>
      <point x="338" y="90" type="curve"/>
      <point x="338" y="244" type="line"/>
      <point x="406" y="244" type="line"/>
      <point x="406" y="58" type="line"/>
      <point x="360" y="14"/>
      <point x="295" y="-7"/>
      <point x="233" y="-7" type="curve" smooth="yes"/>
      <point x="171" y="-7"/>
      <point x="106" y="14"/>
      <point x="60" y="58" type="curve"/>
      <point x="60" y="264" type="line"/>
      <point x="12" y="264" type="line"/>
      <point x="12" y="328" type="line"/>
      <point x="60" y="328" type="line"/>
      <point x="60" y="392" type="line"/>
      <point x="12" y="392" type="line"/>
      <point x="12" y="456" type="line"/>
      <point x="60" y="456" type="line"/>
      <point x="60" y="663" type="line"/>
      <point x="106" y="705"/>
      <point x="171" y="727"/>
      <point x="233" y="727" type="curve" smooth="yes"/>
      <point x="295" y="727"/>
      <point x="360" y="705"/>
      <point x="406" y="663" type="curve"/>
      <point x="406" y="476" type="line"/>
      <point x="338" y="476" type="line"/>
      <point x="338" y="630" type="line"/>
      <point x="313" y="653"/>
      <point x="280" y="666"/>
      <point x="233" y="666" type="curve" smooth="yes"/>
      <point x="186" y="666"/>
      <point x="153" y="653"/>
      <point x="127" y="630" type="curve"/>
      <point x="127" y="456" type="line"/>
      <point x="282" y="456" type="line"/>
      <point x="282" y="392" type="line"/>
    </contour>
  </outline>
</glyph>
<glyph name="uni2117" format="1">
  <advance width="585"/>
  <unicode hex="2117"/>
  <outline>
    <contour>
      <point x="530" y="71" type="line"/>
      <point x="466" y="17"/>
      <point x="383" y="-7"/>
      <point x="292" y="-7" type="curve" smooth="yes"/>
      <point x="200" y="-7"/>
      <point x="118" y="17"/>
      <point x="55" y="71" type="curve"/>
      <point x="55" y="649" type="line"/>
      <point x="118" y="703"/>
      <point x="200" y="727"/>
      <point x="292" y="727" type="curve" smooth="yes"/>
      <point x="383" y="727"/>
      <point x="466" y="703"/>
      <point x="530" y="649" type="curve"/>
    </contour>
    <contour>
      <point x="473" y="100" type="curve"/>
      <point x="473" y="620" type="line"/>
      <point x="423" y="656"/>
      <point x="362" y="674"/>
      <point x="292" y="674" type="curve" smooth="yes"/>
      <point x="224" y="674"/>
      <point x="162" y="657"/>
      <point x="112" y="620" type="curve"/>
      <point x="112" y="100" type="line"/>
      <point x="162" y="63"/>
      <point x="224" y="46"/>
      <point x="292" y="46" type="curve" smooth="yes"/>
      <point x="362" y="46"/>
      <point x="423" y="64"/>
    </contour>
    <contour>
      <point x="403" y="368" type="line"/>
      <point x="375" y="333"/>
      <point x="341" y="315"/>
      <point x="282" y="315" type="curve" smooth="yes"/>
      <point x="247" y="315" type="line"/>
      <point x="247" y="120" type="line"/>
      <point x="195" y="120" type="line"/>
      <point x="195" y="602" type="line"/>
      <point x="282" y="602" type="line" smooth="yes"/>
      <point x="341" y="602"/>
      <point x="375" y="585"/>
      <point x="403" y="550" type="curve"/>
    </contour>
    <contour>
      <point x="351" y="389" type="curve"/>
      <point x="351" y="529" type="line"/>
      <point x="337" y="546"/>
      <point x="317" y="554"/>
      <point x="282" y="554" type="curve" smooth="yes"/>
      <point x="247" y="554" type="line"/>
      <point x="247" y="363" type="line"/>
      <point x="282" y="363" type="line" smooth="yes"/>
      <point x="316" y="363"/>
      <point x="336" y="371"/>
    </contour>
  </outline>
</glyph>
<glyph name="trademark" format="1">
  <advance width="620"/>
  <unicode hex="2122"/>
  <outline>
    <contour>
      <point x="586" y="308" type="line"/>
      <point x="531" y="308" type="line"/>
      <point x="531" y="653" type="line"/>
      <point x="512" y="666"/>
      <point x="486" y="673"/>
      <point x="456" y="676" type="curve"/>
      <point x="456" y="308" type="line"/>
      <point x="402" y="308" type="line"/>
      <point x="402" y="676" type="line"/>
      <point x="373" y="674"/>
      <point x="346" y="666"/>
      <point x="327" y="653" type="curve"/>
      <point x="327" y="308" type="line"/>
      <point x="272" y="308" type="line"/>
      <point x="272" y="681" type="line"/>
      <point x="316" y="712"/>
      <point x="369" y="725"/>
      <point x="429" y="725" type="curve" smooth="yes"/>
      <point x="489" y="725"/>
      <point x="543" y="712"/>
      <point x="586" y="681" type="curve"/>
    </contour>
    <contour>
      <point x="232" y="671" type="line"/>
      <point x="148" y="671" type="line"/>
      <point x="148" y="308" type="line"/>
      <point x="93" y="308" type="line"/>
      <point x="93" y="671" type="line"/>
      <point x="9" y="671" type="line"/>
      <point x="9" y="720" type="line"/>
      <point x="232" y="720" type="line"/>
    </contour>
  </outline>
</glyph>
<glyph name="radical" format="1">
  <advance width="375"/>
  <unicode hex="221A"/>
  <outline>
    <contour>
      <point x="345" y="720" type="line"/>
      <point x="203" y="0" type="line"/>
      <point x="132" y="0" type="line"/>
      <point x="30" y="311" type="line"/>
      <point x="98" y="311" type="line"/>
      <point x="164" y="83" type="line"/>
      <point x="279" y="720" type="line"/>
    </contour>
  </outline>
</glyph>
<glyph name="apple" format="1">
  <advance width="485"/>
  <unicode hex="F8FF"/>
  <outline>
    <contour>
      <point x="430" y="476" type="line"/>
      <point x="362" y="476" type="line"/>
      <point x="362" y="628" type="line"/>
      <point x="331" y="652"/>
      <point x="291" y="666"/>
      <point x="242" y="666" type="curve" smooth="yes"/>
      <point x="194" y="666"/>
      <point x="155" y="652"/>
      <point x="122" y="628" type="curve"/>
      <point x="122" y="476" type="line"/>
      <point x="55" y="476" type="line"/>
      <point x="55" y="660" type="line"/>
      <point x="107" y="706"/>
      <point x="170" y="727"/>
      <point x="242" y="727" type="curve" smooth="yes"/>
      <point x="313" y="727"/>
      <point x="377" y="706"/>
      <point x="430" y="660" type="curve"/>
    </contour>
    <contour>
      <point x="347" y="331" type="line"/>
      <point x="273" y="331" type="line"/>
      <point x="273" y="254" type="line"/>
      <point x="213" y="254" type="line"/>
      <point x="213" y="331" type="line"/>
      <point x="137" y="331" type="line"/>
      <point x="137" y="390" type="line"/>
      <point x="213" y="390" type="line"/>
      <point x="213" y="466" type="line"/>
      <point x="273" y="466" type="line"/>
      <point x="273" y="390" type="line"/>
      <point x="347" y="390" type="line"/>
    </contour>
    <contour>
      <point x="430" y="60" type="line"/>
      <point x="377" y="14"/>
      <point x="313" y="-7"/>
      <point x="242" y="-7" type="curve" smooth="yes"/>
      <point x="170" y="-7"/>
      <point x="107" y="14"/>
      <point x="55" y="60" type="curve"/>
      <point x="55" y="244" type="line"/>
      <point x="122" y="244" type="line"/>
      <point x="122" y="92" type="line"/>
      <point x="155" y="68"/>
      <point x="194" y="54"/>
      <point x="242" y="54" type="curve" smooth="yes"/>
      <point x="291" y="54"/>
      <point x="331" y="68"/>
      <point x="362" y="92" type="curve"/>
      <point x="362" y="244" type="line"/>
      <point x="430" y="244" type="line"/>
    </contour>
  </outline>
</glyph>
<glyph name="registered" format="1">
  <advance width="585"/>
  <outline>
    <contour>
      <point x="530" y="71" type="line"/>
      <point x="466" y="17"/>
      <point x="383" y="-7"/>
      <point x="292" y="-7" type="curve" smooth="yes"/>
      <point x="200" y="-7"/>
      <point x="118" y="17"/>
      <point x="55" y="71" type="curve"/>
      <point x="55" y="649" type="line"/>
      <point x="118" y="703"/>
      <point x="200" y="727"/>
      <point x="292" y="727" type="curve" smooth="yes"/>
      <point x="383" y="727"/>
      <point x="466" y="703"/>
      <point x="530" y="649" type="curve"/>
    </contour>
    <contour>
      <point x="473" y="100" type="curve"/>
      <point x="473" y="620" type="line"/>
      <point x="423" y="656"/>
      <point x="362" y="674"/>
      <point x="292" y="674" type="curve" smooth="yes"/>
      <point x="224" y="674"/>
      <point x="162" y="657"/>
      <point x="112" y="620" type="curve"/>
      <point x="112" y="100" type="line"/>
      <point x="162" y="63"/>
      <point x="224" y="46"/>
      <point x="292" y="46" type="curve" smooth="yes"/>
      <point x="362" y="46"/>
      <point x="423" y="64"/>
    </contour>
    <contour>
      <point x="401" y="121" type="line"/>
      <point x="349" y="121" type="line"/>
      <point x="349" y="318" type="line"/>
      <point x="334" y="334"/>
      <point x="312" y="343"/>
      <point x="279" y="343" type="curve" smooth="yes"/>
      <point x="237" y="343" type="line"/>
      <point x="237" y="121" type="line"/>
      <point x="184" y="121" type="line"/>
      <point x="184" y="604" type="line"/>
      <point x="281" y="604" type="line" smooth="yes"/>
      <point x="340" y="604"/>
      <point x="372" y="590"/>
      <point x="400" y="555" type="curve"/>
      <point x="400" y="394" type="line"/>
      <point x="387" y="381"/>
      <point x="372" y="372"/>
      <point x="354" y="366" type="curve"/>
      <point x="372" y="360"/>
      <point x="390" y="348"/>
      <point x="401" y="336" type="curve"/>
    </contour>
    <contour>
      <point x="347" y="412" type="curve"/>
      <point x="347" y="534" type="line"/>
      <point x="333" y="551"/>
      <point x="315" y="556"/>
      <point x="281" y="556" type="curve" smooth="yes"/>
      <point x="237" y="556" type="line"/>
      <point x="237" y="388" type="line"/>
      <point x="280" y="388" type="line" smooth="yes"/>
      <point x="314" y="388"/>
      <point x="333" y="397"/>
    </contour>
  </outline>
</glyph>
